<svg xmlns="http://www.w3.org/2000/svg" viewBox="0 0 360 640" fill="none">
  <rect width="360" height="640" fill="#0d0d0d"/>
  <rect x="0" y="0" width="72" height="640" fill="#1a1a1a" opacity="0.9"/>
  <rect x="288" y="0" width="72" height="640" fill="#1a1a1a" opacity="0.9"/>
  <path d="M72 0v640M288 0v640" stroke="#000" stroke-width="2" opacity="0.5"/>
  <!-- brick texture -->
  <g opacity="0.15" stroke="#3d3d3d" stroke-width="1">
    <path d="M0 40h72M0 80h72M0 120h72M0 160h72M0 200h72"/>
    <path d="M288 60h72M288 100h72M288 140h72M288 180h72"/>
  </g>
  <!-- torches -->
  <ellipse cx="54" cy="180" rx="28" ry="40" fill="url(#torch-glow)"/>
  <ellipse cx="306" cy="220" rx="24" ry="36" fill="url(#torch-glow)"/>
  <rect x="48" y="200" width="12" height="40" fill="#2a2018"/>
  <rect x="300" y="240" width="12" height="36" fill="#2a2018"/>
  <!-- chains -->
  <path d="M120 0v120M140 0v140M220 0v130M240 0v110" stroke="#3a3a42" stroke-width="3" opacity="0.4"/>
  <path d="M160 0v100M200 0v120" stroke="#525252" stroke-width="4" opacity="0.35"/>
  <!-- floor altar -->
  <ellipse cx="180" cy="580" rx="100" ry="20" fill="#1a1a1a" opacity="0.6"/>
  <rect x="130" y="520" width="100" height="24" rx="2" fill="#242424" stroke="#3d3d3d"/>
  <!-- fog -->
  <ellipse cx="180" cy="500" rx="160" ry="80" fill="url(#fog)"/>
  <defs>
    <radialGradient id="torch-glow" cx="50%" cy="50%" r="50%">
      <stop offset="0%" stop-color="#daa520" stop-opacity="0.35"/>
      <stop offset="100%" stop-color="#8b0000" stop-opacity="0"/>
    </radialGradient>
    <radialGradient id="fog" cx="50%" cy="50%" r="50%">
      <stop offset="0%" stop-color="#1a1a1a" stop-opacity="0.5"/>
      <stop offset="100%" stop-color="#0d0d0d" stop-opacity="0"/>
    </radialGradient>
  </defs>
</svg>
