<svg xmlns="http://www.w3.org/2000/svg" viewBox="0 0 480 800" width="480" height="800">
<defs>
  <radialGradient id="be-skin" cx="38%" cy="28%" r="68%">
    <stop offset="0%" stop-color="#e8c9a8"/>
    <stop offset="55%" stop-color="#c49a6c"/>
    <stop offset="100%" stop-color="#8b6914"/>
  </radialGradient>
  <linearGradient id="be-metal" x1="0" y1="0" x2="1" y2="1">
    <stop offset="0%" stop-color="#8a8a96"/>
    <stop offset="48%" stop-color="#5a5a64"/>
    <stop offset="100%" stop-color="#3a3a44"/>
  </linearGradient>
  <radialGradient id="be-demon" cx="35%" cy="25%" r="70%">
    <stop offset="0%" stop-color="#b04040"/>
    <stop offset="100%" stop-color="#8b2020"/>
  </radialGradient>
  <linearGradient id="be-fur" x1="0.2" y1="0" x2="0.8" y2="1">
    <stop offset="0%" stop-color="#5a4030"/>
    <stop offset="100%" stop-color="#3a2820"/>
  </linearGradient>
  <filter id="be-soft" x="-12%" y="-12%" width="124%" height="124%">
    <feDropShadow dx="0" dy="2" stdDeviation="1.6" flood-color="#000" flood-opacity="0.35"/>
  </filter>
</defs>
  <g transform="translate(0,4)">
<ellipse cx="60" cy="186" rx="26" ry="6" fill="rgba(0,0,0,0.38)"/>
  <g>
    <path d="M46 64 C32 72 26 96 28 122 C29 130 36 132 40 126 C36 104 40 80 52 70 Z"
      fill="url(#be-fur)" stroke="#0d0d0d" stroke-width="1.15"/>
    <ellipse cx="32" cy="128" rx="8" ry="8" fill="url(#be-fur)" stroke="#0d0d0d" stroke-width="0.95"/>
    <path d="M52 114 C46 132 44 152 46 168 C47 176 54 178 57 172 C56 152 56 132 60 116 Z"
      fill="#4a3828" stroke="#0d0d0d" stroke-width="1.1"/>
    <path d="M46 170 L58 170 L60 178 L44 178 Z" fill="#2a1810" stroke="#0d0d0d" stroke-width="0.85"/>
    <path d="M68 114 C74 132 76 152 74 168 C73 176 66 178 63 172 C64 152 64 132 60 116 Z"
      fill="#4a3828" stroke="#0d0d0d" stroke-width="1.1"/>
    <path d="M62 170 L74 170 L76 178 L60 178 Z" fill="#2a1810" stroke="#0d0d0d" stroke-width="0.85"/>
    <ellipse cx="60" cy="96" rx="24" ry="30" fill="url(#be-fur)" stroke="#0d0d0d" stroke-width="1.35"/>
    <path d="M74 64 C88 72 94 96 92 122 C91 130 84 132 80 126 C84 104 80 80 68 70 Z"
      fill="url(#be-fur)" stroke="#0d0d0d" stroke-width="1.15"/>
    <ellipse cx="88" cy="128" rx="8" ry="8" fill="url(#be-fur)" stroke="#0d0d0d" stroke-width="0.95"/>
    <ellipse cx="60" cy="48" rx="16" ry="15" fill="url(#be-fur)" stroke="#0d0d0d" stroke-width="1.25"/>
    <path d="M46 36 L36 18" stroke="#0d0d0d" stroke-width="3" stroke-linecap="round"/>
    <path d="M74 36 L84 18" stroke="#0d0d0d" stroke-width="3" stroke-linecap="round"/>
    <ellipse cx="53" cy="46" rx="3.5" ry="4.5" fill="#b22222"/>
    <ellipse cx="67" cy="46" rx="3.5" ry="4.5" fill="#b22222"/>
    <path d="M52 56 Q60 62 68 56" stroke="#0d0d0d" stroke-width="1.5" fill="none"/>
    <circle cx="55" cy="46" r="1.6" fill="#0d0d0d"/>
  <circle cx="65" cy="46" r="1.6" fill="#0d0d0d"/>
    <g transform="translate(98,62) rotate(10)">
      <rect x="-5" y="0" width="10" height="56" rx="3" fill="#4a3828" stroke="#0d0d0d" stroke-width="0.95"/>
      <circle cx="0" cy="-7" r="9" fill="#3a3a44" stroke="#0d0d0d" stroke-width="0.95"/>
    </g>
  </g>
  </g>
  <g transform="translate(120,1)">
<ellipse cx="60" cy="186" rx="26" ry="6" fill="rgba(0,0,0,0.38)"/>
  <g>
    <path d="M46 64 C32 72 26 96 28 122 C29 130 36 132 40 126 C36 104 40 80 52 70 Z"
      fill="url(#be-fur)" stroke="#0d0d0d" stroke-width="1.15"/>
    <ellipse cx="32" cy="128" rx="8" ry="8" fill="url(#be-fur)" stroke="#0d0d0d" stroke-width="0.95"/>
    <path d="M52 114 C46 132 44 152 46 168 C47 176 54 178 57 172 C56 152 56 132 60 116 Z"
      fill="#4a3828" stroke="#0d0d0d" stroke-width="1.1"/>
    <path d="M46 170 L58 170 L60 178 L44 178 Z" fill="#2a1810" stroke="#0d0d0d" stroke-width="0.85"/>
    <path d="M68 114 C74 132 76 152 74 168 C73 176 66 178 63 172 C64 152 64 132 60 116 Z"
      fill="#4a3828" stroke="#0d0d0d" stroke-width="1.1"/>
    <path d="M62 170 L74 170 L76 178 L60 178 Z" fill="#2a1810" stroke="#0d0d0d" stroke-width="0.85"/>
    <ellipse cx="60" cy="96" rx="24" ry="30" fill="url(#be-fur)" stroke="#0d0d0d" stroke-width="1.35"/>
    <path d="M74 64 C88 72 94 96 92 122 C91 130 84 132 80 126 C84 104 80 80 68 70 Z"
      fill="url(#be-fur)" stroke="#0d0d0d" stroke-width="1.15"/>
    <ellipse cx="88" cy="128" rx="8" ry="8" fill="url(#be-fur)" stroke="#0d0d0d" stroke-width="0.95"/>
    <ellipse cx="60" cy="48" rx="16" ry="15" fill="url(#be-fur)" stroke="#0d0d0d" stroke-width="1.25"/>
    <path d="M46 36 L36 18" stroke="#0d0d0d" stroke-width="3" stroke-linecap="round"/>
    <path d="M74 36 L84 18" stroke="#0d0d0d" stroke-width="3" stroke-linecap="round"/>
    <ellipse cx="53" cy="46" rx="3.5" ry="4.5" fill="#b22222"/>
    <ellipse cx="67" cy="46" rx="3.5" ry="4.5" fill="#b22222"/>
    <path d="M52 56 Q60 62 68 56" stroke="#0d0d0d" stroke-width="1.5" fill="none"/>
    <circle cx="55" cy="46" r="1.6" fill="#0d0d0d"/>
  <circle cx="65" cy="46" r="1.6" fill="#0d0d0d"/>
    <g transform="translate(98,62) rotate(10)">
      <rect x="-5" y="0" width="10" height="56" rx="3" fill="#4a3828" stroke="#0d0d0d" stroke-width="0.95"/>
      <circle cx="0" cy="-7" r="9" fill="#3a3a44" stroke="#0d0d0d" stroke-width="0.95"/>
    </g>
  </g>
  </g>
  <g transform="translate(240,4)">
<ellipse cx="60" cy="186" rx="26" ry="6" fill="rgba(0,0,0,0.38)"/>
  <g>
    <path d="M46 64 C32 72 26 96 28 122 C29 130 36 132 40 126 C36 104 40 80 52 70 Z"
      fill="url(#be-fur)" stroke="#0d0d0d" stroke-width="1.15"/>
    <ellipse cx="32" cy="128" rx="8" ry="8" fill="url(#be-fur)" stroke="#0d0d0d" stroke-width="0.95"/>
    <path d="M52 114 C46 132 44 152 46 168 C47 176 54 178 57 172 C56 152 56 132 60 116 Z"
      fill="#4a3828" stroke="#0d0d0d" stroke-width="1.1"/>
    <path d="M46 170 L58 170 L60 178 L44 178 Z" fill="#2a1810" stroke="#0d0d0d" stroke-width="0.85"/>
    <path d="M68 114 C74 132 76 152 74 168 C73 176 66 178 63 172 C64 152 64 132 60 116 Z"
      fill="#4a3828" stroke="#0d0d0d" stroke-width="1.1"/>
    <path d="M62 170 L74 170 L76 178 L60 178 Z" fill="#2a1810" stroke="#0d0d0d" stroke-width="0.85"/>
    <ellipse cx="60" cy="96" rx="24" ry="30" fill="url(#be-fur)" stroke="#0d0d0d" stroke-width="1.35"/>
    <path d="M74 64 C88 72 94 96 92 122 C91 130 84 132 80 126 C84 104 80 80 68 70 Z"
      fill="url(#be-fur)" stroke="#0d0d0d" stroke-width="1.15"/>
    <ellipse cx="88" cy="128" rx="8" ry="8" fill="url(#be-fur)" stroke="#0d0d0d" stroke-width="0.95"/>
    <ellipse cx="60" cy="48" rx="16" ry="15" fill="url(#be-fur)" stroke="#0d0d0d" stroke-width="1.25"/>
    <path d="M46 36 L36 18" stroke="#0d0d0d" stroke-width="3" stroke-linecap="round"/>
    <path d="M74 36 L84 18" stroke="#0d0d0d" stroke-width="3" stroke-linecap="round"/>
    <ellipse cx="53" cy="46" rx="3.5" ry="4.5" fill="#b22222"/>
    <ellipse cx="67" cy="46" rx="3.5" ry="4.5" fill="#b22222"/>
    <path d="M52 56 Q60 62 68 56" stroke="#0d0d0d" stroke-width="1.5" fill="none"/>
    <circle cx="55" cy="46" r="1.6" fill="#0d0d0d"/>
  <circle cx="65" cy="46" r="1.6" fill="#0d0d0d"/>
    <g transform="translate(98,62) rotate(10)">
      <rect x="-5" y="0" width="10" height="56" rx="3" fill="#4a3828" stroke="#0d0d0d" stroke-width="0.95"/>
      <circle cx="0" cy="-7" r="9" fill="#3a3a44" stroke="#0d0d0d" stroke-width="0.95"/>
    </g>
  </g>
  </g>
  <g transform="translate(360,2)">
<ellipse cx="60" cy="186" rx="26" ry="6" fill="rgba(0,0,0,0.38)"/>
  <g>
    <path d="M46 64 C32 72 26 96 28 122 C29 130 36 132 40 126 C36 104 40 80 52 70 Z"
      fill="url(#be-fur)" stroke="#0d0d0d" stroke-width="1.15"/>
    <ellipse cx="32" cy="128" rx="8" ry="8" fill="url(#be-fur)" stroke="#0d0d0d" stroke-width="0.95"/>
    <path d="M52 114 C46 132 44 152 46 168 C47 176 54 178 57 172 C56 152 56 132 60 116 Z"
      fill="#4a3828" stroke="#0d0d0d" stroke-width="1.1"/>
    <path d="M46 170 L58 170 L60 178 L44 178 Z" fill="#2a1810" stroke="#0d0d0d" stroke-width="0.85"/>
    <path d="M68 114 C74 132 76 152 74 168 C73 176 66 178 63 172 C64 152 64 132 60 116 Z"
      fill="#4a3828" stroke="#0d0d0d" stroke-width="1.1"/>
    <path d="M62 170 L74 170 L76 178 L60 178 Z" fill="#2a1810" stroke="#0d0d0d" stroke-width="0.85"/>
    <ellipse cx="60" cy="96" rx="24" ry="30" fill="url(#be-fur)" stroke="#0d0d0d" stroke-width="1.35"/>
    <path d="M74 64 C88 72 94 96 92 122 C91 130 84 132 80 126 C84 104 80 80 68 70 Z"
      fill="url(#be-fur)" stroke="#0d0d0d" stroke-width="1.15"/>
    <ellipse cx="88" cy="128" rx="8" ry="8" fill="url(#be-fur)" stroke="#0d0d0d" stroke-width="0.95"/>
    <ellipse cx="60" cy="48" rx="16" ry="15" fill="url(#be-fur)" stroke="#0d0d0d" stroke-width="1.25"/>
    <path d="M46 36 L36 18" stroke="#0d0d0d" stroke-width="3" stroke-linecap="round"/>
    <path d="M74 36 L84 18" stroke="#0d0d0d" stroke-width="3" stroke-linecap="round"/>
    <ellipse cx="53" cy="46" rx="3.5" ry="4.5" fill="#b22222"/>
    <ellipse cx="67" cy="46" rx="3.5" ry="4.5" fill="#b22222"/>
    <path d="M52 56 Q60 62 68 56" stroke="#0d0d0d" stroke-width="1.5" fill="none"/>
    <circle cx="55" cy="46" r="1.6" fill="#0d0d0d"/>
  <circle cx="65" cy="46" r="1.6" fill="#0d0d0d"/>
    <g transform="translate(98,62) rotate(10)">
      <rect x="-5" y="0" width="10" height="56" rx="3" fill="#4a3828" stroke="#0d0d0d" stroke-width="0.95"/>
      <circle cx="0" cy="-7" r="9" fill="#3a3a44" stroke="#0d0d0d" stroke-width="0.95"/>
    </g>
  </g>
  </g>
  <g transform="translate(0,203)">
<ellipse cx="60" cy="186" rx="26" ry="6" fill="rgba(0,0,0,0.38)"/>
  <g>
    <path d="M46 64 C32 72 26 96 28 122 C29 130 36 132 40 126 C36 104 40 80 52 70 Z"
      fill="url(#be-fur)" stroke="#0d0d0d" stroke-width="1.15"/>
    <ellipse cx="32" cy="128" rx="8" ry="8" fill="url(#be-fur)" stroke="#0d0d0d" stroke-width="0.95"/>
    <path d="M52 114 C46 132 44 152 46 168 C47 176 54 178 57 172 C56 152 56 132 60 116 Z"
      fill="#4a3828" stroke="#0d0d0d" stroke-width="1.1"/>
    <path d="M46 170 L58 170 L60 178 L44 178 Z" fill="#2a1810" stroke="#0d0d0d" stroke-width="0.85"/>
    <path d="M68 114 C74 132 76 152 74 168 C73 176 66 178 63 172 C64 152 64 132 60 116 Z"
      fill="#4a3828" stroke="#0d0d0d" stroke-width="1.1"/>
    <path d="M62 170 L74 170 L76 178 L60 178 Z" fill="#2a1810" stroke="#0d0d0d" stroke-width="0.85"/>
    <ellipse cx="60" cy="96" rx="24" ry="30" fill="url(#be-fur)" stroke="#0d0d0d" stroke-width="1.35"/>
    <path d="M74 64 C88 72 94 96 92 122 C91 130 84 132 80 126 C84 104 80 80 68 70 Z"
      fill="url(#be-fur)" stroke="#0d0d0d" stroke-width="1.15"/>
    <ellipse cx="88" cy="128" rx="8" ry="8" fill="url(#be-fur)" stroke="#0d0d0d" stroke-width="0.95"/>
    <ellipse cx="60" cy="48" rx="16" ry="15" fill="url(#be-fur)" stroke="#0d0d0d" stroke-width="1.25"/>
    <path d="M46 36 L36 18" stroke="#0d0d0d" stroke-width="3" stroke-linecap="round"/>
    <path d="M74 36 L84 18" stroke="#0d0d0d" stroke-width="3" stroke-linecap="round"/>
    <ellipse cx="53" cy="46" rx="3.5" ry="4.5" fill="#b22222"/>
    <ellipse cx="67" cy="46" rx="3.5" ry="4.5" fill="#b22222"/>
    <path d="M52 56 Q60 62 68 56" stroke="#0d0d0d" stroke-width="1.5" fill="none"/>
    <circle cx="55" cy="46" r="1.6" fill="#0d0d0d"/>
  <circle cx="65" cy="46" r="1.6" fill="#0d0d0d"/>
    <g transform="translate(98,62) rotate(10)">
      <rect x="-5" y="0" width="10" height="56" rx="3" fill="#4a3828" stroke="#0d0d0d" stroke-width="0.95"/>
      <circle cx="0" cy="-7" r="9" fill="#3a3a44" stroke="#0d0d0d" stroke-width="0.95"/>
    </g>
  </g>
  </g>
  <g transform="translate(126,202)">
<ellipse cx="60" cy="186" rx="26" ry="6" fill="rgba(0,0,0,0.38)"/>
  <g>
    <path d="M46 64 C32 72 26 96 28 122 C29 130 36 132 40 126 C36 104 40 80 52 70 Z"
      fill="url(#be-fur)" stroke="#0d0d0d" stroke-width="1.15"/>
    <ellipse cx="32" cy="128" rx="8" ry="8" fill="url(#be-fur)" stroke="#0d0d0d" stroke-width="0.95"/>
    <path d="M52 114 C46 132 44 152 46 168 C47 176 54 178 57 172 C56 152 56 132 60 116 Z"
      fill="#4a3828" stroke="#0d0d0d" stroke-width="1.1"/>
    <path d="M46 170 L58 170 L60 178 L44 178 Z" fill="#2a1810" stroke="#0d0d0d" stroke-width="0.85"/>
    <path d="M68 114 C74 132 76 152 74 168 C73 176 66 178 63 172 C64 152 64 132 60 116 Z"
      fill="#4a3828" stroke="#0d0d0d" stroke-width="1.1"/>
    <path d="M62 170 L74 170 L76 178 L60 178 Z" fill="#2a1810" stroke="#0d0d0d" stroke-width="0.85"/>
    <ellipse cx="60" cy="96" rx="24" ry="30" fill="url(#be-fur)" stroke="#0d0d0d" stroke-width="1.35"/>
    <path d="M74 64 C88 72 94 96 92 122 C91 130 84 132 80 126 C84 104 80 80 68 70 Z"
      fill="url(#be-fur)" stroke="#0d0d0d" stroke-width="1.15"/>
    <ellipse cx="88" cy="128" rx="8" ry="8" fill="url(#be-fur)" stroke="#0d0d0d" stroke-width="0.95"/>
    <ellipse cx="60" cy="48" rx="16" ry="15" fill="url(#be-fur)" stroke="#0d0d0d" stroke-width="1.25"/>
    <path d="M46 36 L36 18" stroke="#0d0d0d" stroke-width="3" stroke-linecap="round"/>
    <path d="M74 36 L84 18" stroke="#0d0d0d" stroke-width="3" stroke-linecap="round"/>
    <ellipse cx="53" cy="46" rx="3.5" ry="4.5" fill="#b22222"/>
    <ellipse cx="67" cy="46" rx="3.5" ry="4.5" fill="#b22222"/>
    <path d="M52 56 Q60 62 68 56" stroke="#0d0d0d" stroke-width="1.5" fill="none"/>
    <circle cx="55" cy="46" r="1.6" fill="#0d0d0d"/>
  <circle cx="65" cy="46" r="1.6" fill="#0d0d0d"/>
    <g transform="translate(98,62) rotate(10)">
      <rect x="-5" y="0" width="10" height="56" rx="3" fill="#4a3828" stroke="#0d0d0d" stroke-width="0.95"/>
      <circle cx="0" cy="-7" r="9" fill="#3a3a44" stroke="#0d0d0d" stroke-width="0.95"/>
    </g>
  </g>
  </g>
  <g transform="translate(252,200)">
<ellipse cx="60" cy="186" rx="26" ry="6" fill="rgba(0,0,0,0.38)"/>
  <g>
    <path d="M46 64 C32 72 26 96 28 122 C29 130 36 132 40 126 C36 104 40 80 52 70 Z"
      fill="url(#be-fur)" stroke="#0d0d0d" stroke-width="1.15"/>
    <ellipse cx="32" cy="128" rx="8" ry="8" fill="url(#be-fur)" stroke="#0d0d0d" stroke-width="0.95"/>
    <path d="M52 114 C46 132 44 152 46 168 C47 176 54 178 57 172 C56 152 56 132 60 116 Z"
      fill="#4a3828" stroke="#0d0d0d" stroke-width="1.1"/>
    <path d="M46 170 L58 170 L60 178 L44 178 Z" fill="#2a1810" stroke="#0d0d0d" stroke-width="0.85"/>
    <path d="M68 114 C74 132 76 152 74 168 C73 176 66 178 63 172 C64 152 64 132 60 116 Z"
      fill="#4a3828" stroke="#0d0d0d" stroke-width="1.1"/>
    <path d="M62 170 L74 170 L76 178 L60 178 Z" fill="#2a1810" stroke="#0d0d0d" stroke-width="0.85"/>
    <ellipse cx="60" cy="96" rx="24" ry="30" fill="url(#be-fur)" stroke="#0d0d0d" stroke-width="1.35"/>
    <path d="M74 64 C88 72 94 96 92 122 C91 130 84 132 80 126 C84 104 80 80 68 70 Z"
      fill="url(#be-fur)" stroke="#0d0d0d" stroke-width="1.15"/>
    <ellipse cx="88" cy="128" rx="8" ry="8" fill="url(#be-fur)" stroke="#0d0d0d" stroke-width="0.95"/>
    <ellipse cx="60" cy="48" rx="16" ry="15" fill="url(#be-fur)" stroke="#0d0d0d" stroke-width="1.25"/>
    <path d="M46 36 L36 18" stroke="#0d0d0d" stroke-width="3" stroke-linecap="round"/>
    <path d="M74 36 L84 18" stroke="#0d0d0d" stroke-width="3" stroke-linecap="round"/>
    <ellipse cx="53" cy="46" rx="3.5" ry="4.5" fill="#b22222"/>
    <ellipse cx="67" cy="46" rx="3.5" ry="4.5" fill="#b22222"/>
    <path d="M52 56 Q60 62 68 56" stroke="#0d0d0d" stroke-width="1.5" fill="none"/>
    <circle cx="55" cy="46" r="1.6" fill="#0d0d0d"/>
  <circle cx="65" cy="46" r="1.6" fill="#0d0d0d"/>
    <g transform="translate(98,62) rotate(10)">
      <rect x="-5" y="0" width="10" height="56" rx="3" fill="#4a3828" stroke="#0d0d0d" stroke-width="0.95"/>
      <circle cx="0" cy="-7" r="9" fill="#3a3a44" stroke="#0d0d0d" stroke-width="0.95"/>
    </g>
  </g>
  </g>
  <g transform="translate(365,202)">
<ellipse cx="60" cy="186" rx="26" ry="6" fill="rgba(0,0,0,0.38)"/>
  <g>
    <path d="M46 64 C32 72 26 96 28 122 C29 130 36 132 40 126 C36 104 40 80 52 70 Z"
      fill="url(#be-fur)" stroke="#0d0d0d" stroke-width="1.15"/>
    <ellipse cx="32" cy="128" rx="8" ry="8" fill="url(#be-fur)" stroke="#0d0d0d" stroke-width="0.95"/>
    <path d="M52 114 C46 132 44 152 46 168 C47 176 54 178 57 172 C56 152 56 132 60 116 Z"
      fill="#4a3828" stroke="#0d0d0d" stroke-width="1.1"/>
    <path d="M46 170 L58 170 L60 178 L44 178 Z" fill="#2a1810" stroke="#0d0d0d" stroke-width="0.85"/>
    <path d="M68 114 C74 132 76 152 74 168 C73 176 66 178 63 172 C64 152 64 132 60 116 Z"
      fill="#4a3828" stroke="#0d0d0d" stroke-width="1.1"/>
    <path d="M62 170 L74 170 L76 178 L60 178 Z" fill="#2a1810" stroke="#0d0d0d" stroke-width="0.85"/>
    <ellipse cx="60" cy="96" rx="24" ry="30" fill="url(#be-fur)" stroke="#0d0d0d" stroke-width="1.35"/>
    <path d="M74 64 C88 72 94 96 92 122 C91 130 84 132 80 126 C84 104 80 80 68 70 Z"
      fill="url(#be-fur)" stroke="#0d0d0d" stroke-width="1.15"/>
    <ellipse cx="88" cy="128" rx="8" ry="8" fill="url(#be-fur)" stroke="#0d0d0d" stroke-width="0.95"/>
    <ellipse cx="60" cy="48" rx="16" ry="15" fill="url(#be-fur)" stroke="#0d0d0d" stroke-width="1.25"/>
    <path d="M46 36 L36 18" stroke="#0d0d0d" stroke-width="3" stroke-linecap="round"/>
    <path d="M74 36 L84 18" stroke="#0d0d0d" stroke-width="3" stroke-linecap="round"/>
    <ellipse cx="53" cy="46" rx="3.5" ry="4.5" fill="#b22222"/>
    <ellipse cx="67" cy="46" rx="3.5" ry="4.5" fill="#b22222"/>
    <path d="M52 56 Q60 62 68 56" stroke="#0d0d0d" stroke-width="1.5" fill="none"/>
    <circle cx="55" cy="46" r="1.6" fill="#0d0d0d"/>
  <circle cx="65" cy="46" r="1.6" fill="#0d0d0d"/>
    <g transform="translate(98,62) rotate(10)">
      <rect x="-5" y="0" width="10" height="56" rx="3" fill="#4a3828" stroke="#0d0d0d" stroke-width="0.95"/>
      <circle cx="0" cy="-7" r="9" fill="#3a3a44" stroke="#0d0d0d" stroke-width="0.95"/>
    </g>
  </g>
  </g>
  <g transform="translate(-3,403)">
<ellipse cx="60" cy="186" rx="26" ry="6" fill="rgba(0,0,0,0.38)"/>
  <g>
    <path d="M46 64 C32 72 26 96 28 122 C29 130 36 132 40 126 C36 104 40 80 52 70 Z"
      fill="url(#be-fur)" stroke="#0d0d0d" stroke-width="1.15"/>
    <ellipse cx="32" cy="128" rx="8" ry="8" fill="url(#be-fur)" stroke="#0d0d0d" stroke-width="0.95"/>
    <path d="M52 114 C46 132 44 152 46 168 C47 176 54 178 57 172 C56 152 56 132 60 116 Z"
      fill="#4a3828" stroke="#0d0d0d" stroke-width="1.1"/>
    <path d="M46 170 L58 170 L60 178 L44 178 Z" fill="#2a1810" stroke="#0d0d0d" stroke-width="0.85"/>
    <path d="M68 114 C74 132 76 152 74 168 C73 176 66 178 63 172 C64 152 64 132 60 116 Z"
      fill="#4a3828" stroke="#0d0d0d" stroke-width="1.1"/>
    <path d="M62 170 L74 170 L76 178 L60 178 Z" fill="#2a1810" stroke="#0d0d0d" stroke-width="0.85"/>
    <ellipse cx="60" cy="96" rx="24" ry="30" fill="url(#be-fur)" stroke="#0d0d0d" stroke-width="1.35"/>
    <path d="M74 64 C88 72 94 96 92 122 C91 130 84 132 80 126 C84 104 80 80 68 70 Z"
      fill="url(#be-fur)" stroke="#0d0d0d" stroke-width="1.15"/>
    <ellipse cx="88" cy="128" rx="8" ry="8" fill="url(#be-fur)" stroke="#0d0d0d" stroke-width="0.95"/>
    <ellipse cx="60" cy="48" rx="16" ry="15" fill="url(#be-fur)" stroke="#0d0d0d" stroke-width="1.25"/>
    <path d="M46 36 L36 18" stroke="#0d0d0d" stroke-width="3" stroke-linecap="round"/>
    <path d="M74 36 L84 18" stroke="#0d0d0d" stroke-width="3" stroke-linecap="round"/>
    <ellipse cx="53" cy="46" rx="3.5" ry="4.5" fill="#b22222"/>
    <ellipse cx="67" cy="46" rx="3.5" ry="4.5" fill="#b22222"/>
    <path d="M52 56 Q60 62 68 56" stroke="#0d0d0d" stroke-width="1.5" fill="none"/>
    <circle cx="55" cy="46" r="1.6" fill="#0d0d0d"/>
  <circle cx="65" cy="46" r="1.6" fill="#0d0d0d"/>
    <g transform="translate(98,62) rotate(10)">
      <rect x="-5" y="0" width="10" height="56" rx="3" fill="#4a3828" stroke="#0d0d0d" stroke-width="0.95"/>
      <circle cx="0" cy="-7" r="9" fill="#3a3a44" stroke="#0d0d0d" stroke-width="0.95"/>
    </g>
  </g>
  </g>
  <g transform="translate(112,402) rotate(-4 60 100)">
<ellipse cx="60" cy="186" rx="26" ry="6" fill="rgba(0,0,0,0.38)"/>
  <g>
    <path d="M46 64 C32 72 26 96 28 122 C29 130 36 132 40 126 C36 104 40 80 52 70 Z"
      fill="url(#be-fur)" stroke="#0d0d0d" stroke-width="1.15"/>
    <ellipse cx="32" cy="128" rx="8" ry="8" fill="url(#be-fur)" stroke="#0d0d0d" stroke-width="0.95"/>
    <path d="M52 114 C46 132 44 152 46 168 C47 176 54 178 57 172 C56 152 56 132 60 116 Z"
      fill="#4a3828" stroke="#0d0d0d" stroke-width="1.1"/>
    <path d="M46 170 L58 170 L60 178 L44 178 Z" fill="#2a1810" stroke="#0d0d0d" stroke-width="0.85"/>
    <path d="M68 114 C74 132 76 152 74 168 C73 176 66 178 63 172 C64 152 64 132 60 116 Z"
      fill="#4a3828" stroke="#0d0d0d" stroke-width="1.1"/>
    <path d="M62 170 L74 170 L76 178 L60 178 Z" fill="#2a1810" stroke="#0d0d0d" stroke-width="0.85"/>
    <ellipse cx="60" cy="96" rx="24" ry="30" fill="url(#be-fur)" stroke="#0d0d0d" stroke-width="1.35"/>
    <path d="M74 64 C88 72 94 96 92 122 C91 130 84 132 80 126 C84 104 80 80 68 70 Z"
      fill="url(#be-fur)" stroke="#0d0d0d" stroke-width="1.15"/>
    <ellipse cx="88" cy="128" rx="8" ry="8" fill="url(#be-fur)" stroke="#0d0d0d" stroke-width="0.95"/>
    <ellipse cx="60" cy="48" rx="16" ry="15" fill="url(#be-fur)" stroke="#0d0d0d" stroke-width="1.25"/>
    <path d="M46 36 L36 18" stroke="#0d0d0d" stroke-width="3" stroke-linecap="round"/>
    <path d="M74 36 L84 18" stroke="#0d0d0d" stroke-width="3" stroke-linecap="round"/>
    <ellipse cx="53" cy="46" rx="3.5" ry="4.5" fill="#b22222"/>
    <ellipse cx="67" cy="46" rx="3.5" ry="4.5" fill="#b22222"/>
    <path d="M52 56 Q60 62 68 56" stroke="#0d0d0d" stroke-width="1.5" fill="none"/>
    <circle cx="55" cy="46" r="1.6" fill="#0d0d0d"/>
  <circle cx="65" cy="46" r="1.6" fill="#0d0d0d"/>
    <g transform="translate(98,62) rotate(10)">
      <rect x="-5" y="0" width="10" height="56" rx="3" fill="#4a3828" stroke="#0d0d0d" stroke-width="0.95"/>
      <circle cx="0" cy="-7" r="9" fill="#3a3a44" stroke="#0d0d0d" stroke-width="0.95"/>
    </g>
  </g>
  </g>
  <g transform="translate(234,404)">
<ellipse cx="60" cy="186" rx="26" ry="6" fill="rgba(0,0,0,0.38)"/>
  <g>
    <path d="M46 64 C32 72 26 96 28 122 C29 130 36 132 40 126 C36 104 40 80 52 70 Z"
      fill="url(#be-fur)" stroke="#0d0d0d" stroke-width="1.15"/>
    <ellipse cx="32" cy="128" rx="8" ry="8" fill="url(#be-fur)" stroke="#0d0d0d" stroke-width="0.95"/>
    <path d="M52 114 C46 132 44 152 46 168 C47 176 54 178 57 172 C56 152 56 132 60 116 Z"
      fill="#4a3828" stroke="#0d0d0d" stroke-width="1.1"/>
    <path d="M46 170 L58 170 L60 178 L44 178 Z" fill="#2a1810" stroke="#0d0d0d" stroke-width="0.85"/>
    <path d="M68 114 C74 132 76 152 74 168 C73 176 66 178 63 172 C64 152 64 132 60 116 Z"
      fill="#4a3828" stroke="#0d0d0d" stroke-width="1.1"/>
    <path d="M62 170 L74 170 L76 178 L60 178 Z" fill="#2a1810" stroke="#0d0d0d" stroke-width="0.85"/>
    <ellipse cx="60" cy="96" rx="24" ry="30" fill="url(#be-fur)" stroke="#0d0d0d" stroke-width="1.35"/>
    <path d="M74 64 C88 72 94 96 92 122 C91 130 84 132 80 126 C84 104 80 80 68 70 Z"
      fill="url(#be-fur)" stroke="#0d0d0d" stroke-width="1.15"/>
    <ellipse cx="88" cy="128" rx="8" ry="8" fill="url(#be-fur)" stroke="#0d0d0d" stroke-width="0.95"/>
    <ellipse cx="60" cy="48" rx="16" ry="15" fill="url(#be-fur)" stroke="#0d0d0d" stroke-width="1.25"/>
    <path d="M46 36 L36 18" stroke="#0d0d0d" stroke-width="3" stroke-linecap="round"/>
    <path d="M74 36 L84 18" stroke="#0d0d0d" stroke-width="3" stroke-linecap="round"/>
    <ellipse cx="53" cy="46" rx="3.5" ry="4.5" fill="#b22222"/>
    <ellipse cx="67" cy="46" rx="3.5" ry="4.5" fill="#b22222"/>
    <path d="M52 56 Q60 62 68 56" stroke="#0d0d0d" stroke-width="1.5" fill="none"/>
    <circle cx="55" cy="46" r="1.6" fill="#0d0d0d"/>
  <circle cx="65" cy="46" r="1.6" fill="#0d0d0d"/>
    <g transform="translate(98,62) rotate(10)">
      <rect x="-5" y="0" width="10" height="56" rx="3" fill="#4a3828" stroke="#0d0d0d" stroke-width="0.95"/>
      <circle cx="0" cy="-7" r="9" fill="#3a3a44" stroke="#0d0d0d" stroke-width="0.95"/>
    </g>
  </g>
  </g>
  <g transform="translate(357,405)">
<ellipse cx="60" cy="186" rx="26" ry="6" fill="rgba(0,0,0,0.38)"/>
  <g>
    <path d="M46 64 C32 72 26 96 28 122 C29 130 36 132 40 126 C36 104 40 80 52 70 Z"
      fill="url(#be-fur)" stroke="#0d0d0d" stroke-width="1.15"/>
    <ellipse cx="32" cy="128" rx="8" ry="8" fill="url(#be-fur)" stroke="#0d0d0d" stroke-width="0.95"/>
    <path d="M52 114 C46 132 44 152 46 168 C47 176 54 178 57 172 C56 152 56 132 60 116 Z"
      fill="#4a3828" stroke="#0d0d0d" stroke-width="1.1"/>
    <path d="M46 170 L58 170 L60 178 L44 178 Z" fill="#2a1810" stroke="#0d0d0d" stroke-width="0.85"/>
    <path d="M68 114 C74 132 76 152 74 168 C73 176 66 178 63 172 C64 152 64 132 60 116 Z"
      fill="#4a3828" stroke="#0d0d0d" stroke-width="1.1"/>
    <path d="M62 170 L74 170 L76 178 L60 178 Z" fill="#2a1810" stroke="#0d0d0d" stroke-width="0.85"/>
    <ellipse cx="60" cy="96" rx="24" ry="30" fill="url(#be-fur)" stroke="#0d0d0d" stroke-width="1.35"/>
    <path d="M74 64 C88 72 94 96 92 122 C91 130 84 132 80 126 C84 104 80 80 68 70 Z"
      fill="url(#be-fur)" stroke="#0d0d0d" stroke-width="1.15"/>
    <ellipse cx="88" cy="128" rx="8" ry="8" fill="url(#be-fur)" stroke="#0d0d0d" stroke-width="0.95"/>
    <ellipse cx="60" cy="48" rx="16" ry="15" fill="url(#be-fur)" stroke="#0d0d0d" stroke-width="1.25"/>
    <path d="M46 36 L36 18" stroke="#0d0d0d" stroke-width="3" stroke-linecap="round"/>
    <path d="M74 36 L84 18" stroke="#0d0d0d" stroke-width="3" stroke-linecap="round"/>
    <ellipse cx="53" cy="46" rx="3.5" ry="4.5" fill="#b22222"/>
    <ellipse cx="67" cy="46" rx="3.5" ry="4.5" fill="#b22222"/>
    <path d="M52 56 Q60 62 68 56" stroke="#0d0d0d" stroke-width="1.5" fill="none"/>
    <circle cx="55" cy="46" r="1.6" fill="#0d0d0d"/>
  <circle cx="65" cy="46" r="1.6" fill="#0d0d0d"/>
    <g transform="translate(98,62) rotate(10)">
      <rect x="-5" y="0" width="10" height="56" rx="3" fill="#4a3828" stroke="#0d0d0d" stroke-width="0.95"/>
      <circle cx="0" cy="-7" r="9" fill="#3a3a44" stroke="#0d0d0d" stroke-width="0.95"/>
    </g>
  </g>
  </g>
  <g transform="translate(0,604) rotate(-5 60 100)" opacity="1">
<ellipse cx="60" cy="186" rx="26" ry="6" fill="rgba(0,0,0,0.38)"/>
  <g>
    <path d="M46 64 C32 72 26 96 28 122 C29 130 36 132 40 126 C36 104 40 80 52 70 Z"
      fill="url(#be-fur)" stroke="#0d0d0d" stroke-width="1.15"/>
    <ellipse cx="32" cy="128" rx="8" ry="8" fill="url(#be-fur)" stroke="#0d0d0d" stroke-width="0.95"/>
    <path d="M52 114 C46 132 44 152 46 168 C47 176 54 178 57 172 C56 152 56 132 60 116 Z"
      fill="#4a3828" stroke="#0d0d0d" stroke-width="1.1"/>
    <path d="M46 170 L58 170 L60 178 L44 178 Z" fill="#2a1810" stroke="#0d0d0d" stroke-width="0.85"/>
    <path d="M68 114 C74 132 76 152 74 168 C73 176 66 178 63 172 C64 152 64 132 60 116 Z"
      fill="#4a3828" stroke="#0d0d0d" stroke-width="1.1"/>
    <path d="M62 170 L74 170 L76 178 L60 178 Z" fill="#2a1810" stroke="#0d0d0d" stroke-width="0.85"/>
    <ellipse cx="60" cy="96" rx="24" ry="30" fill="url(#be-fur)" stroke="#0d0d0d" stroke-width="1.35"/>
    <path d="M74 64 C88 72 94 96 92 122 C91 130 84 132 80 126 C84 104 80 80 68 70 Z"
      fill="url(#be-fur)" stroke="#0d0d0d" stroke-width="1.15"/>
    <ellipse cx="88" cy="128" rx="8" ry="8" fill="url(#be-fur)" stroke="#0d0d0d" stroke-width="0.95"/>
    <ellipse cx="60" cy="48" rx="16" ry="15" fill="url(#be-fur)" stroke="#0d0d0d" stroke-width="1.25"/>
    <path d="M46 36 L36 18" stroke="#0d0d0d" stroke-width="3" stroke-linecap="round"/>
    <path d="M74 36 L84 18" stroke="#0d0d0d" stroke-width="3" stroke-linecap="round"/>
    <ellipse cx="53" cy="46" rx="3.5" ry="4.5" fill="#b22222"/>
    <ellipse cx="67" cy="46" rx="3.5" ry="4.5" fill="#b22222"/>
    <path d="M52 56 Q60 62 68 56" stroke="#0d0d0d" stroke-width="1.5" fill="none"/>
    <circle cx="55" cy="46" r="1.6" fill="#0d0d0d"/>
  <circle cx="65" cy="46" r="1.6" fill="#0d0d0d"/>
    <g transform="translate(98,62) rotate(10)">
      <rect x="-5" y="0" width="10" height="56" rx="3" fill="#4a3828" stroke="#0d0d0d" stroke-width="0.95"/>
      <circle cx="0" cy="-7" r="9" fill="#3a3a44" stroke="#0d0d0d" stroke-width="0.95"/>
    </g>
  </g>
  </g>
  <g transform="translate(120,612) rotate(-14 60 100)" opacity="0.85">
<ellipse cx="60" cy="186" rx="26" ry="6" fill="rgba(0,0,0,0.38)"/>
  <g>
    <path d="M46 64 C32 72 26 96 28 122 C29 130 36 132 40 126 C36 104 40 80 52 70 Z"
      fill="url(#be-fur)" stroke="#0d0d0d" stroke-width="1.15"/>
    <ellipse cx="32" cy="128" rx="8" ry="8" fill="url(#be-fur)" stroke="#0d0d0d" stroke-width="0.95"/>
    <path d="M52 114 C46 132 44 152 46 168 C47 176 54 178 57 172 C56 152 56 132 60 116 Z"
      fill="#4a3828" stroke="#0d0d0d" stroke-width="1.1"/>
    <path d="M46 170 L58 170 L60 178 L44 178 Z" fill="#2a1810" stroke="#0d0d0d" stroke-width="0.85"/>
    <path d="M68 114 C74 132 76 152 74 168 C73 176 66 178 63 172 C64 152 64 132 60 116 Z"
      fill="#4a3828" stroke="#0d0d0d" stroke-width="1.1"/>
    <path d="M62 170 L74 170 L76 178 L60 178 Z" fill="#2a1810" stroke="#0d0d0d" stroke-width="0.85"/>
    <ellipse cx="60" cy="96" rx="24" ry="30" fill="url(#be-fur)" stroke="#0d0d0d" stroke-width="1.35"/>
    <path d="M74 64 C88 72 94 96 92 122 C91 130 84 132 80 126 C84 104 80 80 68 70 Z"
      fill="url(#be-fur)" stroke="#0d0d0d" stroke-width="1.15"/>
    <ellipse cx="88" cy="128" rx="8" ry="8" fill="url(#be-fur)" stroke="#0d0d0d" stroke-width="0.95"/>
    <ellipse cx="60" cy="48" rx="16" ry="15" fill="url(#be-fur)" stroke="#0d0d0d" stroke-width="1.25"/>
    <path d="M46 36 L36 18" stroke="#0d0d0d" stroke-width="3" stroke-linecap="round"/>
    <path d="M74 36 L84 18" stroke="#0d0d0d" stroke-width="3" stroke-linecap="round"/>
    <ellipse cx="53" cy="46" rx="3.5" ry="4.5" fill="#b22222"/>
    <ellipse cx="67" cy="46" rx="3.5" ry="4.5" fill="#b22222"/>
    <path d="M52 56 Q60 62 68 56" stroke="#0d0d0d" stroke-width="1.5" fill="none"/>
    <circle cx="55" cy="46" r="1.6" fill="#0d0d0d"/>
  <circle cx="65" cy="46" r="1.6" fill="#0d0d0d"/>
    <g transform="translate(98,62) rotate(10)">
      <rect x="-5" y="0" width="10" height="56" rx="3" fill="#4a3828" stroke="#0d0d0d" stroke-width="0.95"/>
      <circle cx="0" cy="-7" r="9" fill="#3a3a44" stroke="#0d0d0d" stroke-width="0.95"/>
    </g>
  </g>
  </g>
  <g transform="translate(240,620) rotate(-24 60 100)" opacity="0.5">
<ellipse cx="60" cy="186" rx="26" ry="6" fill="rgba(0,0,0,0.38)"/>
  <g>
    <path d="M46 64 C32 72 26 96 28 122 C29 130 36 132 40 126 C36 104 40 80 52 70 Z"
      fill="url(#be-fur)" stroke="#0d0d0d" stroke-width="1.15"/>
    <ellipse cx="32" cy="128" rx="8" ry="8" fill="url(#be-fur)" stroke="#0d0d0d" stroke-width="0.95"/>
    <path d="M52 114 C46 132 44 152 46 168 C47 176 54 178 57 172 C56 152 56 132 60 116 Z"
      fill="#4a3828" stroke="#0d0d0d" stroke-width="1.1"/>
    <path d="M46 170 L58 170 L60 178 L44 178 Z" fill="#2a1810" stroke="#0d0d0d" stroke-width="0.85"/>
    <path d="M68 114 C74 132 76 152 74 168 C73 176 66 178 63 172 C64 152 64 132 60 116 Z"
      fill="#4a3828" stroke="#0d0d0d" stroke-width="1.1"/>
    <path d="M62 170 L74 170 L76 178 L60 178 Z" fill="#2a1810" stroke="#0d0d0d" stroke-width="0.85"/>
    <ellipse cx="60" cy="96" rx="24" ry="30" fill="url(#be-fur)" stroke="#0d0d0d" stroke-width="1.35"/>
    <path d="M74 64 C88 72 94 96 92 122 C91 130 84 132 80 126 C84 104 80 80 68 70 Z"
      fill="url(#be-fur)" stroke="#0d0d0d" stroke-width="1.15"/>
    <ellipse cx="88" cy="128" rx="8" ry="8" fill="url(#be-fur)" stroke="#0d0d0d" stroke-width="0.95"/>
    <ellipse cx="60" cy="48" rx="16" ry="15" fill="url(#be-fur)" stroke="#0d0d0d" stroke-width="1.25"/>
    <path d="M46 36 L36 18" stroke="#0d0d0d" stroke-width="3" stroke-linecap="round"/>
    <path d="M74 36 L84 18" stroke="#0d0d0d" stroke-width="3" stroke-linecap="round"/>
    <ellipse cx="53" cy="46" rx="3.5" ry="4.5" fill="#b22222"/>
    <ellipse cx="67" cy="46" rx="3.5" ry="4.5" fill="#b22222"/>
    <path d="M52 56 Q60 62 68 56" stroke="#0d0d0d" stroke-width="1.5" fill="none"/>
    <circle cx="55" cy="46" r="1.6" fill="#0d0d0d"/>
  <circle cx="65" cy="46" r="1.6" fill="#0d0d0d"/>
    <g transform="translate(98,62) rotate(10)">
      <rect x="-5" y="0" width="10" height="56" rx="3" fill="#4a3828" stroke="#0d0d0d" stroke-width="0.95"/>
      <circle cx="0" cy="-7" r="9" fill="#3a3a44" stroke="#0d0d0d" stroke-width="0.95"/>
    </g>
  </g>
  </g>
  <g transform="translate(360,628) rotate(-32 60 100)" opacity="0.22">
<ellipse cx="60" cy="186" rx="26" ry="6" fill="rgba(0,0,0,0.38)"/>
  <g>
    <path d="M46 64 C32 72 26 96 28 122 C29 130 36 132 40 126 C36 104 40 80 52 70 Z"
      fill="url(#be-fur)" stroke="#0d0d0d" stroke-width="1.15"/>
    <ellipse cx="32" cy="128" rx="8" ry="8" fill="url(#be-fur)" stroke="#0d0d0d" stroke-width="0.95"/>
    <path d="M52 114 C46 132 44 152 46 168 C47 176 54 178 57 172 C56 152 56 132 60 116 Z"
      fill="#4a3828" stroke="#0d0d0d" stroke-width="1.1"/>
    <path d="M46 170 L58 170 L60 178 L44 178 Z" fill="#2a1810" stroke="#0d0d0d" stroke-width="0.85"/>
    <path d="M68 114 C74 132 76 152 74 168 C73 176 66 178 63 172 C64 152 64 132 60 116 Z"
      fill="#4a3828" stroke="#0d0d0d" stroke-width="1.1"/>
    <path d="M62 170 L74 170 L76 178 L60 178 Z" fill="#2a1810" stroke="#0d0d0d" stroke-width="0.85"/>
    <ellipse cx="60" cy="96" rx="24" ry="30" fill="url(#be-fur)" stroke="#0d0d0d" stroke-width="1.35"/>
    <path d="M74 64 C88 72 94 96 92 122 C91 130 84 132 80 126 C84 104 80 80 68 70 Z"
      fill="url(#be-fur)" stroke="#0d0d0d" stroke-width="1.15"/>
    <ellipse cx="88" cy="128" rx="8" ry="8" fill="url(#be-fur)" stroke="#0d0d0d" stroke-width="0.95"/>
    <ellipse cx="60" cy="48" rx="16" ry="15" fill="url(#be-fur)" stroke="#0d0d0d" stroke-width="1.25"/>
    <path d="M46 36 L36 18" stroke="#0d0d0d" stroke-width="3" stroke-linecap="round"/>
    <path d="M74 36 L84 18" stroke="#0d0d0d" stroke-width="3" stroke-linecap="round"/>
    <ellipse cx="53" cy="46" rx="3.5" ry="4.5" fill="#b22222"/>
    <ellipse cx="67" cy="46" rx="3.5" ry="4.5" fill="#b22222"/>
    <path d="M52 56 Q60 62 68 56" stroke="#0d0d0d" stroke-width="1.5" fill="none"/>
    <circle cx="55" cy="46" r="1.6" fill="#0d0d0d"/>
  <circle cx="65" cy="46" r="1.6" fill="#0d0d0d"/>
    <g transform="translate(98,62) rotate(10)">
      <rect x="-5" y="0" width="10" height="56" rx="3" fill="#4a3828" stroke="#0d0d0d" stroke-width="0.95"/>
      <circle cx="0" cy="-7" r="9" fill="#3a3a44" stroke="#0d0d0d" stroke-width="0.95"/>
    </g>
  </g>
  </g>
</svg>