<svg xmlns="http://www.w3.org/2000/svg" viewBox="0 0 480 800" width="480" height="800">
<defs>
  <radialGradient id="de-skin" cx="38%" cy="28%" r="68%">
    <stop offset="0%" stop-color="#e8c9a8"/>
    <stop offset="55%" stop-color="#c49a6c"/>
    <stop offset="100%" stop-color="#8b6914"/>
  </radialGradient>
  <linearGradient id="de-metal" x1="0" y1="0" x2="1" y2="1">
    <stop offset="0%" stop-color="#8a8a96"/>
    <stop offset="48%" stop-color="#5a5a64"/>
    <stop offset="100%" stop-color="#3a3a44"/>
  </linearGradient>
  <radialGradient id="de-demon" cx="35%" cy="25%" r="70%">
    <stop offset="0%" stop-color="#b04040"/>
    <stop offset="100%" stop-color="#8b2020"/>
  </radialGradient>
  <linearGradient id="de-fur" x1="0.2" y1="0" x2="0.8" y2="1">
    <stop offset="0%" stop-color="#5a4030"/>
    <stop offset="100%" stop-color="#3a2820"/>
  </linearGradient>
  <filter id="de-soft" x="-12%" y="-12%" width="124%" height="124%">
    <feDropShadow dx="0" dy="2" stdDeviation="1.6" flood-color="#000" flood-opacity="0.35"/>
  </filter>
</defs>
  <g transform="translate(0,4)">
<ellipse cx="60" cy="186" rx="26" ry="6" fill="rgba(0,0,0,0.38)"/>
  <g>
    <path d="M46 64 C32 72 26 96 28 122 C29 130 36 132 40 126 C36 104 40 80 52 70 Z"
      fill="url(#de-demon)" stroke="#8b0000" stroke-width="1.15"/>
    <ellipse cx="32" cy="128" rx="8" ry="8" fill="url(#de-demon)" stroke="#0d0d0d" stroke-width="0.95"/>
    <path d="M52 114 C46 132 44 152 46 168 C47 176 54 178 57 172 C56 152 56 132 60 116 Z"
      fill="url(#de-demon)" stroke="#0d0d0d" stroke-width="1.1"/>
    <path d="M46 170 L58 170 L60 178 L44 178 Z" fill="#2a1010" stroke="#0d0d0d" stroke-width="0.85"/>
    <path d="M68 114 C74 132 76 152 74 168 C73 176 66 178 63 172 C64 152 64 132 60 116 Z"
      fill="url(#de-demon)" stroke="#0d0d0d" stroke-width="1.1"/>
    <path d="M62 170 L74 170 L76 178 L60 178 Z" fill="#2a1010" stroke="#0d0d0d" stroke-width="0.85"/>
    <path d="M44 56 Q60 46 76 56 L80 112 Q60 122 40 112 Z"
      fill="url(#de-demon)" stroke="#8b0000" stroke-width="1.3"/>
    <path d="M74 64 C88 72 94 96 92 122 C91 130 84 132 80 126 C84 104 80 80 68 70 Z"
      fill="url(#de-demon)" stroke="#8b0000" stroke-width="1.15"/>
    <ellipse cx="88" cy="128" rx="8" ry="8" fill="url(#de-demon)" stroke="#0d0d0d" stroke-width="0.95"/>
    <ellipse cx="60" cy="42" rx="14" ry="13" fill="url(#de-demon)" stroke="#8b0000" stroke-width="1.2"/>
    <path d="M48 32 Q38 12 48 16" stroke="#2a1010" stroke-width="4" fill="none" stroke-linecap="round"/>
    <path d="M72 32 Q82 12 72 16" stroke="#2a1010" stroke-width="4" fill="none" stroke-linecap="round"/>
    <circle cx="55.5" cy="40" r="1.6" fill="#c5a059"/>
  <circle cx="64.5" cy="40" r="1.6" fill="#c5a059"/>
    <path d="M52 50 Q60 56 68 50" stroke="#0d0d0d" stroke-width="1.8" fill="none"/>
    <path d="M46 104 Q60 116 74 104 L70 128 Q60 134 50 128 Z"
      fill="#2a1010" stroke="#0d0d0d" stroke-width="0.95"/>
    <g transform="translate(100,58) rotate(12)">
      <rect x="-5.5" y="0" width="11" height="58" rx="3" fill="#4a3828" stroke="#0d0d0d" stroke-width="0.95"/>
      <circle cx="0" cy="-8" r="10" fill="#3a3a44" stroke="#0d0d0d" stroke-width="0.95"/>
    </g>
  </g>
  </g>
  <g transform="translate(120,1)">
<ellipse cx="60" cy="186" rx="26" ry="6" fill="rgba(0,0,0,0.38)"/>
  <g>
    <path d="M46 64 C32 72 26 96 28 122 C29 130 36 132 40 126 C36 104 40 80 52 70 Z"
      fill="url(#de-demon)" stroke="#8b0000" stroke-width="1.15"/>
    <ellipse cx="32" cy="128" rx="8" ry="8" fill="url(#de-demon)" stroke="#0d0d0d" stroke-width="0.95"/>
    <path d="M52 114 C46 132 44 152 46 168 C47 176 54 178 57 172 C56 152 56 132 60 116 Z"
      fill="url(#de-demon)" stroke="#0d0d0d" stroke-width="1.1"/>
    <path d="M46 170 L58 170 L60 178 L44 178 Z" fill="#2a1010" stroke="#0d0d0d" stroke-width="0.85"/>
    <path d="M68 114 C74 132 76 152 74 168 C73 176 66 178 63 172 C64 152 64 132 60 116 Z"
      fill="url(#de-demon)" stroke="#0d0d0d" stroke-width="1.1"/>
    <path d="M62 170 L74 170 L76 178 L60 178 Z" fill="#2a1010" stroke="#0d0d0d" stroke-width="0.85"/>
    <path d="M44 56 Q60 46 76 56 L80 112 Q60 122 40 112 Z"
      fill="url(#de-demon)" stroke="#8b0000" stroke-width="1.3"/>
    <path d="M74 64 C88 72 94 96 92 122 C91 130 84 132 80 126 C84 104 80 80 68 70 Z"
      fill="url(#de-demon)" stroke="#8b0000" stroke-width="1.15"/>
    <ellipse cx="88" cy="128" rx="8" ry="8" fill="url(#de-demon)" stroke="#0d0d0d" stroke-width="0.95"/>
    <ellipse cx="60" cy="42" rx="14" ry="13" fill="url(#de-demon)" stroke="#8b0000" stroke-width="1.2"/>
    <path d="M48 32 Q38 12 48 16" stroke="#2a1010" stroke-width="4" fill="none" stroke-linecap="round"/>
    <path d="M72 32 Q82 12 72 16" stroke="#2a1010" stroke-width="4" fill="none" stroke-linecap="round"/>
    <circle cx="55.5" cy="40" r="1.6" fill="#c5a059"/>
  <circle cx="64.5" cy="40" r="1.6" fill="#c5a059"/>
    <path d="M52 50 Q60 56 68 50" stroke="#0d0d0d" stroke-width="1.8" fill="none"/>
    <path d="M46 104 Q60 116 74 104 L70 128 Q60 134 50 128 Z"
      fill="#2a1010" stroke="#0d0d0d" stroke-width="0.95"/>
    <g transform="translate(100,58) rotate(12)">
      <rect x="-5.5" y="0" width="11" height="58" rx="3" fill="#4a3828" stroke="#0d0d0d" stroke-width="0.95"/>
      <circle cx="0" cy="-8" r="10" fill="#3a3a44" stroke="#0d0d0d" stroke-width="0.95"/>
    </g>
  </g>
  </g>
  <g transform="translate(240,4)">
<ellipse cx="60" cy="186" rx="26" ry="6" fill="rgba(0,0,0,0.38)"/>
  <g>
    <path d="M46 64 C32 72 26 96 28 122 C29 130 36 132 40 126 C36 104 40 80 52 70 Z"
      fill="url(#de-demon)" stroke="#8b0000" stroke-width="1.15"/>
    <ellipse cx="32" cy="128" rx="8" ry="8" fill="url(#de-demon)" stroke="#0d0d0d" stroke-width="0.95"/>
    <path d="M52 114 C46 132 44 152 46 168 C47 176 54 178 57 172 C56 152 56 132 60 116 Z"
      fill="url(#de-demon)" stroke="#0d0d0d" stroke-width="1.1"/>
    <path d="M46 170 L58 170 L60 178 L44 178 Z" fill="#2a1010" stroke="#0d0d0d" stroke-width="0.85"/>
    <path d="M68 114 C74 132 76 152 74 168 C73 176 66 178 63 172 C64 152 64 132 60 116 Z"
      fill="url(#de-demon)" stroke="#0d0d0d" stroke-width="1.1"/>
    <path d="M62 170 L74 170 L76 178 L60 178 Z" fill="#2a1010" stroke="#0d0d0d" stroke-width="0.85"/>
    <path d="M44 56 Q60 46 76 56 L80 112 Q60 122 40 112 Z"
      fill="url(#de-demon)" stroke="#8b0000" stroke-width="1.3"/>
    <path d="M74 64 C88 72 94 96 92 122 C91 130 84 132 80 126 C84 104 80 80 68 70 Z"
      fill="url(#de-demon)" stroke="#8b0000" stroke-width="1.15"/>
    <ellipse cx="88" cy="128" rx="8" ry="8" fill="url(#de-demon)" stroke="#0d0d0d" stroke-width="0.95"/>
    <ellipse cx="60" cy="42" rx="14" ry="13" fill="url(#de-demon)" stroke="#8b0000" stroke-width="1.2"/>
    <path d="M48 32 Q38 12 48 16" stroke="#2a1010" stroke-width="4" fill="none" stroke-linecap="round"/>
    <path d="M72 32 Q82 12 72 16" stroke="#2a1010" stroke-width="4" fill="none" stroke-linecap="round"/>
    <circle cx="55.5" cy="40" r="1.6" fill="#c5a059"/>
  <circle cx="64.5" cy="40" r="1.6" fill="#c5a059"/>
    <path d="M52 50 Q60 56 68 50" stroke="#0d0d0d" stroke-width="1.8" fill="none"/>
    <path d="M46 104 Q60 116 74 104 L70 128 Q60 134 50 128 Z"
      fill="#2a1010" stroke="#0d0d0d" stroke-width="0.95"/>
    <g transform="translate(100,58) rotate(12)">
      <rect x="-5.5" y="0" width="11" height="58" rx="3" fill="#4a3828" stroke="#0d0d0d" stroke-width="0.95"/>
      <circle cx="0" cy="-8" r="10" fill="#3a3a44" stroke="#0d0d0d" stroke-width="0.95"/>
    </g>
  </g>
  </g>
  <g transform="translate(360,2)">
<ellipse cx="60" cy="186" rx="26" ry="6" fill="rgba(0,0,0,0.38)"/>
  <g>
    <path d="M46 64 C32 72 26 96 28 122 C29 130 36 132 40 126 C36 104 40 80 52 70 Z"
      fill="url(#de-demon)" stroke="#8b0000" stroke-width="1.15"/>
    <ellipse cx="32" cy="128" rx="8" ry="8" fill="url(#de-demon)" stroke="#0d0d0d" stroke-width="0.95"/>
    <path d="M52 114 C46 132 44 152 46 168 C47 176 54 178 57 172 C56 152 56 132 60 116 Z"
      fill="url(#de-demon)" stroke="#0d0d0d" stroke-width="1.1"/>
    <path d="M46 170 L58 170 L60 178 L44 178 Z" fill="#2a1010" stroke="#0d0d0d" stroke-width="0.85"/>
    <path d="M68 114 C74 132 76 152 74 168 C73 176 66 178 63 172 C64 152 64 132 60 116 Z"
      fill="url(#de-demon)" stroke="#0d0d0d" stroke-width="1.1"/>
    <path d="M62 170 L74 170 L76 178 L60 178 Z" fill="#2a1010" stroke="#0d0d0d" stroke-width="0.85"/>
    <path d="M44 56 Q60 46 76 56 L80 112 Q60 122 40 112 Z"
      fill="url(#de-demon)" stroke="#8b0000" stroke-width="1.3"/>
    <path d="M74 64 C88 72 94 96 92 122 C91 130 84 132 80 126 C84 104 80 80 68 70 Z"
      fill="url(#de-demon)" stroke="#8b0000" stroke-width="1.15"/>
    <ellipse cx="88" cy="128" rx="8" ry="8" fill="url(#de-demon)" stroke="#0d0d0d" stroke-width="0.95"/>
    <ellipse cx="60" cy="42" rx="14" ry="13" fill="url(#de-demon)" stroke="#8b0000" stroke-width="1.2"/>
    <path d="M48 32 Q38 12 48 16" stroke="#2a1010" stroke-width="4" fill="none" stroke-linecap="round"/>
    <path d="M72 32 Q82 12 72 16" stroke="#2a1010" stroke-width="4" fill="none" stroke-linecap="round"/>
    <circle cx="55.5" cy="40" r="1.6" fill="#c5a059"/>
  <circle cx="64.5" cy="40" r="1.6" fill="#c5a059"/>
    <path d="M52 50 Q60 56 68 50" stroke="#0d0d0d" stroke-width="1.8" fill="none"/>
    <path d="M46 104 Q60 116 74 104 L70 128 Q60 134 50 128 Z"
      fill="#2a1010" stroke="#0d0d0d" stroke-width="0.95"/>
    <g transform="translate(100,58) rotate(12)">
      <rect x="-5.5" y="0" width="11" height="58" rx="3" fill="#4a3828" stroke="#0d0d0d" stroke-width="0.95"/>
      <circle cx="0" cy="-8" r="10" fill="#3a3a44" stroke="#0d0d0d" stroke-width="0.95"/>
    </g>
  </g>
  </g>
  <g transform="translate(0,203)">
<ellipse cx="60" cy="186" rx="26" ry="6" fill="rgba(0,0,0,0.38)"/>
  <g>
    <path d="M46 64 C32 72 26 96 28 122 C29 130 36 132 40 126 C36 104 40 80 52 70 Z"
      fill="url(#de-demon)" stroke="#8b0000" stroke-width="1.15"/>
    <ellipse cx="32" cy="128" rx="8" ry="8" fill="url(#de-demon)" stroke="#0d0d0d" stroke-width="0.95"/>
    <path d="M52 114 C46 132 44 152 46 168 C47 176 54 178 57 172 C56 152 56 132 60 116 Z"
      fill="url(#de-demon)" stroke="#0d0d0d" stroke-width="1.1"/>
    <path d="M46 170 L58 170 L60 178 L44 178 Z" fill="#2a1010" stroke="#0d0d0d" stroke-width="0.85"/>
    <path d="M68 114 C74 132 76 152 74 168 C73 176 66 178 63 172 C64 152 64 132 60 116 Z"
      fill="url(#de-demon)" stroke="#0d0d0d" stroke-width="1.1"/>
    <path d="M62 170 L74 170 L76 178 L60 178 Z" fill="#2a1010" stroke="#0d0d0d" stroke-width="0.85"/>
    <path d="M44 56 Q60 46 76 56 L80 112 Q60 122 40 112 Z"
      fill="url(#de-demon)" stroke="#8b0000" stroke-width="1.3"/>
    <path d="M74 64 C88 72 94 96 92 122 C91 130 84 132 80 126 C84 104 80 80 68 70 Z"
      fill="url(#de-demon)" stroke="#8b0000" stroke-width="1.15"/>
    <ellipse cx="88" cy="128" rx="8" ry="8" fill="url(#de-demon)" stroke="#0d0d0d" stroke-width="0.95"/>
    <ellipse cx="60" cy="42" rx="14" ry="13" fill="url(#de-demon)" stroke="#8b0000" stroke-width="1.2"/>
    <path d="M48 32 Q38 12 48 16" stroke="#2a1010" stroke-width="4" fill="none" stroke-linecap="round"/>
    <path d="M72 32 Q82 12 72 16" stroke="#2a1010" stroke-width="4" fill="none" stroke-linecap="round"/>
    <circle cx="55.5" cy="40" r="1.6" fill="#c5a059"/>
  <circle cx="64.5" cy="40" r="1.6" fill="#c5a059"/>
    <path d="M52 50 Q60 56 68 50" stroke="#0d0d0d" stroke-width="1.8" fill="none"/>
    <path d="M46 104 Q60 116 74 104 L70 128 Q60 134 50 128 Z"
      fill="#2a1010" stroke="#0d0d0d" stroke-width="0.95"/>
    <g transform="translate(100,58) rotate(12)">
      <rect x="-5.5" y="0" width="11" height="58" rx="3" fill="#4a3828" stroke="#0d0d0d" stroke-width="0.95"/>
      <circle cx="0" cy="-8" r="10" fill="#3a3a44" stroke="#0d0d0d" stroke-width="0.95"/>
    </g>
  </g>
  </g>
  <g transform="translate(126,202)">
<ellipse cx="60" cy="186" rx="26" ry="6" fill="rgba(0,0,0,0.38)"/>
  <g>
    <path d="M46 64 C32 72 26 96 28 122 C29 130 36 132 40 126 C36 104 40 80 52 70 Z"
      fill="url(#de-demon)" stroke="#8b0000" stroke-width="1.15"/>
    <ellipse cx="32" cy="128" rx="8" ry="8" fill="url(#de-demon)" stroke="#0d0d0d" stroke-width="0.95"/>
    <path d="M52 114 C46 132 44 152 46 168 C47 176 54 178 57 172 C56 152 56 132 60 116 Z"
      fill="url(#de-demon)" stroke="#0d0d0d" stroke-width="1.1"/>
    <path d="M46 170 L58 170 L60 178 L44 178 Z" fill="#2a1010" stroke="#0d0d0d" stroke-width="0.85"/>
    <path d="M68 114 C74 132 76 152 74 168 C73 176 66 178 63 172 C64 152 64 132 60 116 Z"
      fill="url(#de-demon)" stroke="#0d0d0d" stroke-width="1.1"/>
    <path d="M62 170 L74 170 L76 178 L60 178 Z" fill="#2a1010" stroke="#0d0d0d" stroke-width="0.85"/>
    <path d="M44 56 Q60 46 76 56 L80 112 Q60 122 40 112 Z"
      fill="url(#de-demon)" stroke="#8b0000" stroke-width="1.3"/>
    <path d="M74 64 C88 72 94 96 92 122 C91 130 84 132 80 126 C84 104 80 80 68 70 Z"
      fill="url(#de-demon)" stroke="#8b0000" stroke-width="1.15"/>
    <ellipse cx="88" cy="128" rx="8" ry="8" fill="url(#de-demon)" stroke="#0d0d0d" stroke-width="0.95"/>
    <ellipse cx="60" cy="42" rx="14" ry="13" fill="url(#de-demon)" stroke="#8b0000" stroke-width="1.2"/>
    <path d="M48 32 Q38 12 48 16" stroke="#2a1010" stroke-width="4" fill="none" stroke-linecap="round"/>
    <path d="M72 32 Q82 12 72 16" stroke="#2a1010" stroke-width="4" fill="none" stroke-linecap="round"/>
    <circle cx="55.5" cy="40" r="1.6" fill="#c5a059"/>
  <circle cx="64.5" cy="40" r="1.6" fill="#c5a059"/>
    <path d="M52 50 Q60 56 68 50" stroke="#0d0d0d" stroke-width="1.8" fill="none"/>
    <path d="M46 104 Q60 116 74 104 L70 128 Q60 134 50 128 Z"
      fill="#2a1010" stroke="#0d0d0d" stroke-width="0.95"/>
    <g transform="translate(100,58) rotate(12)">
      <rect x="-5.5" y="0" width="11" height="58" rx="3" fill="#4a3828" stroke="#0d0d0d" stroke-width="0.95"/>
      <circle cx="0" cy="-8" r="10" fill="#3a3a44" stroke="#0d0d0d" stroke-width="0.95"/>
    </g>
  </g>
  </g>
  <g transform="translate(252,200)">
<ellipse cx="60" cy="186" rx="26" ry="6" fill="rgba(0,0,0,0.38)"/>
  <g>
    <path d="M46 64 C32 72 26 96 28 122 C29 130 36 132 40 126 C36 104 40 80 52 70 Z"
      fill="url(#de-demon)" stroke="#8b0000" stroke-width="1.15"/>
    <ellipse cx="32" cy="128" rx="8" ry="8" fill="url(#de-demon)" stroke="#0d0d0d" stroke-width="0.95"/>
    <path d="M52 114 C46 132 44 152 46 168 C47 176 54 178 57 172 C56 152 56 132 60 116 Z"
      fill="url(#de-demon)" stroke="#0d0d0d" stroke-width="1.1"/>
    <path d="M46 170 L58 170 L60 178 L44 178 Z" fill="#2a1010" stroke="#0d0d0d" stroke-width="0.85"/>
    <path d="M68 114 C74 132 76 152 74 168 C73 176 66 178 63 172 C64 152 64 132 60 116 Z"
      fill="url(#de-demon)" stroke="#0d0d0d" stroke-width="1.1"/>
    <path d="M62 170 L74 170 L76 178 L60 178 Z" fill="#2a1010" stroke="#0d0d0d" stroke-width="0.85"/>
    <path d="M44 56 Q60 46 76 56 L80 112 Q60 122 40 112 Z"
      fill="url(#de-demon)" stroke="#8b0000" stroke-width="1.3"/>
    <path d="M74 64 C88 72 94 96 92 122 C91 130 84 132 80 126 C84 104 80 80 68 70 Z"
      fill="url(#de-demon)" stroke="#8b0000" stroke-width="1.15"/>
    <ellipse cx="88" cy="128" rx="8" ry="8" fill="url(#de-demon)" stroke="#0d0d0d" stroke-width="0.95"/>
    <ellipse cx="60" cy="42" rx="14" ry="13" fill="url(#de-demon)" stroke="#8b0000" stroke-width="1.2"/>
    <path d="M48 32 Q38 12 48 16" stroke="#2a1010" stroke-width="4" fill="none" stroke-linecap="round"/>
    <path d="M72 32 Q82 12 72 16" stroke="#2a1010" stroke-width="4" fill="none" stroke-linecap="round"/>
    <circle cx="55.5" cy="40" r="1.6" fill="#c5a059"/>
  <circle cx="64.5" cy="40" r="1.6" fill="#c5a059"/>
    <path d="M52 50 Q60 56 68 50" stroke="#0d0d0d" stroke-width="1.8" fill="none"/>
    <path d="M46 104 Q60 116 74 104 L70 128 Q60 134 50 128 Z"
      fill="#2a1010" stroke="#0d0d0d" stroke-width="0.95"/>
    <g transform="translate(100,58) rotate(12)">
      <rect x="-5.5" y="0" width="11" height="58" rx="3" fill="#4a3828" stroke="#0d0d0d" stroke-width="0.95"/>
      <circle cx="0" cy="-8" r="10" fill="#3a3a44" stroke="#0d0d0d" stroke-width="0.95"/>
    </g>
  </g>
  </g>
  <g transform="translate(365,202)">
<ellipse cx="60" cy="186" rx="26" ry="6" fill="rgba(0,0,0,0.38)"/>
  <g>
    <path d="M46 64 C32 72 26 96 28 122 C29 130 36 132 40 126 C36 104 40 80 52 70 Z"
      fill="url(#de-demon)" stroke="#8b0000" stroke-width="1.15"/>
    <ellipse cx="32" cy="128" rx="8" ry="8" fill="url(#de-demon)" stroke="#0d0d0d" stroke-width="0.95"/>
    <path d="M52 114 C46 132 44 152 46 168 C47 176 54 178 57 172 C56 152 56 132 60 116 Z"
      fill="url(#de-demon)" stroke="#0d0d0d" stroke-width="1.1"/>
    <path d="M46 170 L58 170 L60 178 L44 178 Z" fill="#2a1010" stroke="#0d0d0d" stroke-width="0.85"/>
    <path d="M68 114 C74 132 76 152 74 168 C73 176 66 178 63 172 C64 152 64 132 60 116 Z"
      fill="url(#de-demon)" stroke="#0d0d0d" stroke-width="1.1"/>
    <path d="M62 170 L74 170 L76 178 L60 178 Z" fill="#2a1010" stroke="#0d0d0d" stroke-width="0.85"/>
    <path d="M44 56 Q60 46 76 56 L80 112 Q60 122 40 112 Z"
      fill="url(#de-demon)" stroke="#8b0000" stroke-width="1.3"/>
    <path d="M74 64 C88 72 94 96 92 122 C91 130 84 132 80 126 C84 104 80 80 68 70 Z"
      fill="url(#de-demon)" stroke="#8b0000" stroke-width="1.15"/>
    <ellipse cx="88" cy="128" rx="8" ry="8" fill="url(#de-demon)" stroke="#0d0d0d" stroke-width="0.95"/>
    <ellipse cx="60" cy="42" rx="14" ry="13" fill="url(#de-demon)" stroke="#8b0000" stroke-width="1.2"/>
    <path d="M48 32 Q38 12 48 16" stroke="#2a1010" stroke-width="4" fill="none" stroke-linecap="round"/>
    <path d="M72 32 Q82 12 72 16" stroke="#2a1010" stroke-width="4" fill="none" stroke-linecap="round"/>
    <circle cx="55.5" cy="40" r="1.6" fill="#c5a059"/>
  <circle cx="64.5" cy="40" r="1.6" fill="#c5a059"/>
    <path d="M52 50 Q60 56 68 50" stroke="#0d0d0d" stroke-width="1.8" fill="none"/>
    <path d="M46 104 Q60 116 74 104 L70 128 Q60 134 50 128 Z"
      fill="#2a1010" stroke="#0d0d0d" stroke-width="0.95"/>
    <g transform="translate(100,58) rotate(12)">
      <rect x="-5.5" y="0" width="11" height="58" rx="3" fill="#4a3828" stroke="#0d0d0d" stroke-width="0.95"/>
      <circle cx="0" cy="-8" r="10" fill="#3a3a44" stroke="#0d0d0d" stroke-width="0.95"/>
    </g>
  </g>
  </g>
  <g transform="translate(-3,403)">
<ellipse cx="60" cy="186" rx="26" ry="6" fill="rgba(0,0,0,0.38)"/>
  <g>
    <path d="M46 64 C32 72 26 96 28 122 C29 130 36 132 40 126 C36 104 40 80 52 70 Z"
      fill="url(#de-demon)" stroke="#8b0000" stroke-width="1.15"/>
    <ellipse cx="32" cy="128" rx="8" ry="8" fill="url(#de-demon)" stroke="#0d0d0d" stroke-width="0.95"/>
    <path d="M52 114 C46 132 44 152 46 168 C47 176 54 178 57 172 C56 152 56 132 60 116 Z"
      fill="url(#de-demon)" stroke="#0d0d0d" stroke-width="1.1"/>
    <path d="M46 170 L58 170 L60 178 L44 178 Z" fill="#2a1010" stroke="#0d0d0d" stroke-width="0.85"/>
    <path d="M68 114 C74 132 76 152 74 168 C73 176 66 178 63 172 C64 152 64 132 60 116 Z"
      fill="url(#de-demon)" stroke="#0d0d0d" stroke-width="1.1"/>
    <path d="M62 170 L74 170 L76 178 L60 178 Z" fill="#2a1010" stroke="#0d0d0d" stroke-width="0.85"/>
    <path d="M44 56 Q60 46 76 56 L80 112 Q60 122 40 112 Z"
      fill="url(#de-demon)" stroke="#8b0000" stroke-width="1.3"/>
    <path d="M74 64 C88 72 94 96 92 122 C91 130 84 132 80 126 C84 104 80 80 68 70 Z"
      fill="url(#de-demon)" stroke="#8b0000" stroke-width="1.15"/>
    <ellipse cx="88" cy="128" rx="8" ry="8" fill="url(#de-demon)" stroke="#0d0d0d" stroke-width="0.95"/>
    <ellipse cx="60" cy="42" rx="14" ry="13" fill="url(#de-demon)" stroke="#8b0000" stroke-width="1.2"/>
    <path d="M48 32 Q38 12 48 16" stroke="#2a1010" stroke-width="4" fill="none" stroke-linecap="round"/>
    <path d="M72 32 Q82 12 72 16" stroke="#2a1010" stroke-width="4" fill="none" stroke-linecap="round"/>
    <circle cx="55.5" cy="40" r="1.6" fill="#c5a059"/>
  <circle cx="64.5" cy="40" r="1.6" fill="#c5a059"/>
    <path d="M52 50 Q60 56 68 50" stroke="#0d0d0d" stroke-width="1.8" fill="none"/>
    <path d="M46 104 Q60 116 74 104 L70 128 Q60 134 50 128 Z"
      fill="#2a1010" stroke="#0d0d0d" stroke-width="0.95"/>
    <g transform="translate(100,58) rotate(12)">
      <rect x="-5.5" y="0" width="11" height="58" rx="3" fill="#4a3828" stroke="#0d0d0d" stroke-width="0.95"/>
      <circle cx="0" cy="-8" r="10" fill="#3a3a44" stroke="#0d0d0d" stroke-width="0.95"/>
    </g>
  </g>
  </g>
  <g transform="translate(112,402) rotate(-4 60 100)">
<ellipse cx="60" cy="186" rx="26" ry="6" fill="rgba(0,0,0,0.38)"/>
  <g>
    <path d="M46 64 C32 72 26 96 28 122 C29 130 36 132 40 126 C36 104 40 80 52 70 Z"
      fill="url(#de-demon)" stroke="#8b0000" stroke-width="1.15"/>
    <ellipse cx="32" cy="128" rx="8" ry="8" fill="url(#de-demon)" stroke="#0d0d0d" stroke-width="0.95"/>
    <path d="M52 114 C46 132 44 152 46 168 C47 176 54 178 57 172 C56 152 56 132 60 116 Z"
      fill="url(#de-demon)" stroke="#0d0d0d" stroke-width="1.1"/>
    <path d="M46 170 L58 170 L60 178 L44 178 Z" fill="#2a1010" stroke="#0d0d0d" stroke-width="0.85"/>
    <path d="M68 114 C74 132 76 152 74 168 C73 176 66 178 63 172 C64 152 64 132 60 116 Z"
      fill="url(#de-demon)" stroke="#0d0d0d" stroke-width="1.1"/>
    <path d="M62 170 L74 170 L76 178 L60 178 Z" fill="#2a1010" stroke="#0d0d0d" stroke-width="0.85"/>
    <path d="M44 56 Q60 46 76 56 L80 112 Q60 122 40 112 Z"
      fill="url(#de-demon)" stroke="#8b0000" stroke-width="1.3"/>
    <path d="M74 64 C88 72 94 96 92 122 C91 130 84 132 80 126 C84 104 80 80 68 70 Z"
      fill="url(#de-demon)" stroke="#8b0000" stroke-width="1.15"/>
    <ellipse cx="88" cy="128" rx="8" ry="8" fill="url(#de-demon)" stroke="#0d0d0d" stroke-width="0.95"/>
    <ellipse cx="60" cy="42" rx="14" ry="13" fill="url(#de-demon)" stroke="#8b0000" stroke-width="1.2"/>
    <path d="M48 32 Q38 12 48 16" stroke="#2a1010" stroke-width="4" fill="none" stroke-linecap="round"/>
    <path d="M72 32 Q82 12 72 16" stroke="#2a1010" stroke-width="4" fill="none" stroke-linecap="round"/>
    <circle cx="55.5" cy="40" r="1.6" fill="#c5a059"/>
  <circle cx="64.5" cy="40" r="1.6" fill="#c5a059"/>
    <path d="M52 50 Q60 56 68 50" stroke="#0d0d0d" stroke-width="1.8" fill="none"/>
    <path d="M46 104 Q60 116 74 104 L70 128 Q60 134 50 128 Z"
      fill="#2a1010" stroke="#0d0d0d" stroke-width="0.95"/>
    <g transform="translate(100,58) rotate(12)">
      <rect x="-5.5" y="0" width="11" height="58" rx="3" fill="#4a3828" stroke="#0d0d0d" stroke-width="0.95"/>
      <circle cx="0" cy="-8" r="10" fill="#3a3a44" stroke="#0d0d0d" stroke-width="0.95"/>
    </g>
  </g>
  </g>
  <g transform="translate(234,404)">
<ellipse cx="60" cy="186" rx="26" ry="6" fill="rgba(0,0,0,0.38)"/>
  <g>
    <path d="M46 64 C32 72 26 96 28 122 C29 130 36 132 40 126 C36 104 40 80 52 70 Z"
      fill="url(#de-demon)" stroke="#8b0000" stroke-width="1.15"/>
    <ellipse cx="32" cy="128" rx="8" ry="8" fill="url(#de-demon)" stroke="#0d0d0d" stroke-width="0.95"/>
    <path d="M52 114 C46 132 44 152 46 168 C47 176 54 178 57 172 C56 152 56 132 60 116 Z"
      fill="url(#de-demon)" stroke="#0d0d0d" stroke-width="1.1"/>
    <path d="M46 170 L58 170 L60 178 L44 178 Z" fill="#2a1010" stroke="#0d0d0d" stroke-width="0.85"/>
    <path d="M68 114 C74 132 76 152 74 168 C73 176 66 178 63 172 C64 152 64 132 60 116 Z"
      fill="url(#de-demon)" stroke="#0d0d0d" stroke-width="1.1"/>
    <path d="M62 170 L74 170 L76 178 L60 178 Z" fill="#2a1010" stroke="#0d0d0d" stroke-width="0.85"/>
    <path d="M44 56 Q60 46 76 56 L80 112 Q60 122 40 112 Z"
      fill="url(#de-demon)" stroke="#8b0000" stroke-width="1.3"/>
    <path d="M74 64 C88 72 94 96 92 122 C91 130 84 132 80 126 C84 104 80 80 68 70 Z"
      fill="url(#de-demon)" stroke="#8b0000" stroke-width="1.15"/>
    <ellipse cx="88" cy="128" rx="8" ry="8" fill="url(#de-demon)" stroke="#0d0d0d" stroke-width="0.95"/>
    <ellipse cx="60" cy="42" rx="14" ry="13" fill="url(#de-demon)" stroke="#8b0000" stroke-width="1.2"/>
    <path d="M48 32 Q38 12 48 16" stroke="#2a1010" stroke-width="4" fill="none" stroke-linecap="round"/>
    <path d="M72 32 Q82 12 72 16" stroke="#2a1010" stroke-width="4" fill="none" stroke-linecap="round"/>
    <circle cx="55.5" cy="40" r="1.6" fill="#c5a059"/>
  <circle cx="64.5" cy="40" r="1.6" fill="#c5a059"/>
    <path d="M52 50 Q60 56 68 50" stroke="#0d0d0d" stroke-width="1.8" fill="none"/>
    <path d="M46 104 Q60 116 74 104 L70 128 Q60 134 50 128 Z"
      fill="#2a1010" stroke="#0d0d0d" stroke-width="0.95"/>
    <g transform="translate(100,58) rotate(12)">
      <rect x="-5.5" y="0" width="11" height="58" rx="3" fill="#4a3828" stroke="#0d0d0d" stroke-width="0.95"/>
      <circle cx="0" cy="-8" r="10" fill="#3a3a44" stroke="#0d0d0d" stroke-width="0.95"/>
    </g>
  </g>
  </g>
  <g transform="translate(357,405)">
<ellipse cx="60" cy="186" rx="26" ry="6" fill="rgba(0,0,0,0.38)"/>
  <g>
    <path d="M46 64 C32 72 26 96 28 122 C29 130 36 132 40 126 C36 104 40 80 52 70 Z"
      fill="url(#de-demon)" stroke="#8b0000" stroke-width="1.15"/>
    <ellipse cx="32" cy="128" rx="8" ry="8" fill="url(#de-demon)" stroke="#0d0d0d" stroke-width="0.95"/>
    <path d="M52 114 C46 132 44 152 46 168 C47 176 54 178 57 172 C56 152 56 132 60 116 Z"
      fill="url(#de-demon)" stroke="#0d0d0d" stroke-width="1.1"/>
    <path d="M46 170 L58 170 L60 178 L44 178 Z" fill="#2a1010" stroke="#0d0d0d" stroke-width="0.85"/>
    <path d="M68 114 C74 132 76 152 74 168 C73 176 66 178 63 172 C64 152 64 132 60 116 Z"
      fill="url(#de-demon)" stroke="#0d0d0d" stroke-width="1.1"/>
    <path d="M62 170 L74 170 L76 178 L60 178 Z" fill="#2a1010" stroke="#0d0d0d" stroke-width="0.85"/>
    <path d="M44 56 Q60 46 76 56 L80 112 Q60 122 40 112 Z"
      fill="url(#de-demon)" stroke="#8b0000" stroke-width="1.3"/>
    <path d="M74 64 C88 72 94 96 92 122 C91 130 84 132 80 126 C84 104 80 80 68 70 Z"
      fill="url(#de-demon)" stroke="#8b0000" stroke-width="1.15"/>
    <ellipse cx="88" cy="128" rx="8" ry="8" fill="url(#de-demon)" stroke="#0d0d0d" stroke-width="0.95"/>
    <ellipse cx="60" cy="42" rx="14" ry="13" fill="url(#de-demon)" stroke="#8b0000" stroke-width="1.2"/>
    <path d="M48 32 Q38 12 48 16" stroke="#2a1010" stroke-width="4" fill="none" stroke-linecap="round"/>
    <path d="M72 32 Q82 12 72 16" stroke="#2a1010" stroke-width="4" fill="none" stroke-linecap="round"/>
    <circle cx="55.5" cy="40" r="1.6" fill="#c5a059"/>
  <circle cx="64.5" cy="40" r="1.6" fill="#c5a059"/>
    <path d="M52 50 Q60 56 68 50" stroke="#0d0d0d" stroke-width="1.8" fill="none"/>
    <path d="M46 104 Q60 116 74 104 L70 128 Q60 134 50 128 Z"
      fill="#2a1010" stroke="#0d0d0d" stroke-width="0.95"/>
    <g transform="translate(100,58) rotate(12)">
      <rect x="-5.5" y="0" width="11" height="58" rx="3" fill="#4a3828" stroke="#0d0d0d" stroke-width="0.95"/>
      <circle cx="0" cy="-8" r="10" fill="#3a3a44" stroke="#0d0d0d" stroke-width="0.95"/>
    </g>
  </g>
  </g>
  <g transform="translate(0,604) rotate(-5 60 100)" opacity="1">
<ellipse cx="60" cy="186" rx="26" ry="6" fill="rgba(0,0,0,0.38)"/>
  <g>
    <path d="M46 64 C32 72 26 96 28 122 C29 130 36 132 40 126 C36 104 40 80 52 70 Z"
      fill="url(#de-demon)" stroke="#8b0000" stroke-width="1.15"/>
    <ellipse cx="32" cy="128" rx="8" ry="8" fill="url(#de-demon)" stroke="#0d0d0d" stroke-width="0.95"/>
    <path d="M52 114 C46 132 44 152 46 168 C47 176 54 178 57 172 C56 152 56 132 60 116 Z"
      fill="url(#de-demon)" stroke="#0d0d0d" stroke-width="1.1"/>
    <path d="M46 170 L58 170 L60 178 L44 178 Z" fill="#2a1010" stroke="#0d0d0d" stroke-width="0.85"/>
    <path d="M68 114 C74 132 76 152 74 168 C73 176 66 178 63 172 C64 152 64 132 60 116 Z"
      fill="url(#de-demon)" stroke="#0d0d0d" stroke-width="1.1"/>
    <path d="M62 170 L74 170 L76 178 L60 178 Z" fill="#2a1010" stroke="#0d0d0d" stroke-width="0.85"/>
    <path d="M44 56 Q60 46 76 56 L80 112 Q60 122 40 112 Z"
      fill="url(#de-demon)" stroke="#8b0000" stroke-width="1.3"/>
    <path d="M74 64 C88 72 94 96 92 122 C91 130 84 132 80 126 C84 104 80 80 68 70 Z"
      fill="url(#de-demon)" stroke="#8b0000" stroke-width="1.15"/>
    <ellipse cx="88" cy="128" rx="8" ry="8" fill="url(#de-demon)" stroke="#0d0d0d" stroke-width="0.95"/>
    <ellipse cx="60" cy="42" rx="14" ry="13" fill="url(#de-demon)" stroke="#8b0000" stroke-width="1.2"/>
    <path d="M48 32 Q38 12 48 16" stroke="#2a1010" stroke-width="4" fill="none" stroke-linecap="round"/>
    <path d="M72 32 Q82 12 72 16" stroke="#2a1010" stroke-width="4" fill="none" stroke-linecap="round"/>
    <circle cx="55.5" cy="40" r="1.6" fill="#c5a059"/>
  <circle cx="64.5" cy="40" r="1.6" fill="#c5a059"/>
    <path d="M52 50 Q60 56 68 50" stroke="#0d0d0d" stroke-width="1.8" fill="none"/>
    <path d="M46 104 Q60 116 74 104 L70 128 Q60 134 50 128 Z"
      fill="#2a1010" stroke="#0d0d0d" stroke-width="0.95"/>
    <g transform="translate(100,58) rotate(12)">
      <rect x="-5.5" y="0" width="11" height="58" rx="3" fill="#4a3828" stroke="#0d0d0d" stroke-width="0.95"/>
      <circle cx="0" cy="-8" r="10" fill="#3a3a44" stroke="#0d0d0d" stroke-width="0.95"/>
    </g>
  </g>
  </g>
  <g transform="translate(120,612) rotate(-14 60 100)" opacity="0.85">
<ellipse cx="60" cy="186" rx="26" ry="6" fill="rgba(0,0,0,0.38)"/>
  <g>
    <path d="M46 64 C32 72 26 96 28 122 C29 130 36 132 40 126 C36 104 40 80 52 70 Z"
      fill="url(#de-demon)" stroke="#8b0000" stroke-width="1.15"/>
    <ellipse cx="32" cy="128" rx="8" ry="8" fill="url(#de-demon)" stroke="#0d0d0d" stroke-width="0.95"/>
    <path d="M52 114 C46 132 44 152 46 168 C47 176 54 178 57 172 C56 152 56 132 60 116 Z"
      fill="url(#de-demon)" stroke="#0d0d0d" stroke-width="1.1"/>
    <path d="M46 170 L58 170 L60 178 L44 178 Z" fill="#2a1010" stroke="#0d0d0d" stroke-width="0.85"/>
    <path d="M68 114 C74 132 76 152 74 168 C73 176 66 178 63 172 C64 152 64 132 60 116 Z"
      fill="url(#de-demon)" stroke="#0d0d0d" stroke-width="1.1"/>
    <path d="M62 170 L74 170 L76 178 L60 178 Z" fill="#2a1010" stroke="#0d0d0d" stroke-width="0.85"/>
    <path d="M44 56 Q60 46 76 56 L80 112 Q60 122 40 112 Z"
      fill="url(#de-demon)" stroke="#8b0000" stroke-width="1.3"/>
    <path d="M74 64 C88 72 94 96 92 122 C91 130 84 132 80 126 C84 104 80 80 68 70 Z"
      fill="url(#de-demon)" stroke="#8b0000" stroke-width="1.15"/>
    <ellipse cx="88" cy="128" rx="8" ry="8" fill="url(#de-demon)" stroke="#0d0d0d" stroke-width="0.95"/>
    <ellipse cx="60" cy="42" rx="14" ry="13" fill="url(#de-demon)" stroke="#8b0000" stroke-width="1.2"/>
    <path d="M48 32 Q38 12 48 16" stroke="#2a1010" stroke-width="4" fill="none" stroke-linecap="round"/>
    <path d="M72 32 Q82 12 72 16" stroke="#2a1010" stroke-width="4" fill="none" stroke-linecap="round"/>
    <circle cx="55.5" cy="40" r="1.6" fill="#c5a059"/>
  <circle cx="64.5" cy="40" r="1.6" fill="#c5a059"/>
    <path d="M52 50 Q60 56 68 50" stroke="#0d0d0d" stroke-width="1.8" fill="none"/>
    <path d="M46 104 Q60 116 74 104 L70 128 Q60 134 50 128 Z"
      fill="#2a1010" stroke="#0d0d0d" stroke-width="0.95"/>
    <g transform="translate(100,58) rotate(12)">
      <rect x="-5.5" y="0" width="11" height="58" rx="3" fill="#4a3828" stroke="#0d0d0d" stroke-width="0.95"/>
      <circle cx="0" cy="-8" r="10" fill="#3a3a44" stroke="#0d0d0d" stroke-width="0.95"/>
    </g>
  </g>
  </g>
  <g transform="translate(240,620) rotate(-24 60 100)" opacity="0.5">
<ellipse cx="60" cy="186" rx="26" ry="6" fill="rgba(0,0,0,0.38)"/>
  <g>
    <path d="M46 64 C32 72 26 96 28 122 C29 130 36 132 40 126 C36 104 40 80 52 70 Z"
      fill="url(#de-demon)" stroke="#8b0000" stroke-width="1.15"/>
    <ellipse cx="32" cy="128" rx="8" ry="8" fill="url(#de-demon)" stroke="#0d0d0d" stroke-width="0.95"/>
    <path d="M52 114 C46 132 44 152 46 168 C47 176 54 178 57 172 C56 152 56 132 60 116 Z"
      fill="url(#de-demon)" stroke="#0d0d0d" stroke-width="1.1"/>
    <path d="M46 170 L58 170 L60 178 L44 178 Z" fill="#2a1010" stroke="#0d0d0d" stroke-width="0.85"/>
    <path d="M68 114 C74 132 76 152 74 168 C73 176 66 178 63 172 C64 152 64 132 60 116 Z"
      fill="url(#de-demon)" stroke="#0d0d0d" stroke-width="1.1"/>
    <path d="M62 170 L74 170 L76 178 L60 178 Z" fill="#2a1010" stroke="#0d0d0d" stroke-width="0.85"/>
    <path d="M44 56 Q60 46 76 56 L80 112 Q60 122 40 112 Z"
      fill="url(#de-demon)" stroke="#8b0000" stroke-width="1.3"/>
    <path d="M74 64 C88 72 94 96 92 122 C91 130 84 132 80 126 C84 104 80 80 68 70 Z"
      fill="url(#de-demon)" stroke="#8b0000" stroke-width="1.15"/>
    <ellipse cx="88" cy="128" rx="8" ry="8" fill="url(#de-demon)" stroke="#0d0d0d" stroke-width="0.95"/>
    <ellipse cx="60" cy="42" rx="14" ry="13" fill="url(#de-demon)" stroke="#8b0000" stroke-width="1.2"/>
    <path d="M48 32 Q38 12 48 16" stroke="#2a1010" stroke-width="4" fill="none" stroke-linecap="round"/>
    <path d="M72 32 Q82 12 72 16" stroke="#2a1010" stroke-width="4" fill="none" stroke-linecap="round"/>
    <circle cx="55.5" cy="40" r="1.6" fill="#c5a059"/>
  <circle cx="64.5" cy="40" r="1.6" fill="#c5a059"/>
    <path d="M52 50 Q60 56 68 50" stroke="#0d0d0d" stroke-width="1.8" fill="none"/>
    <path d="M46 104 Q60 116 74 104 L70 128 Q60 134 50 128 Z"
      fill="#2a1010" stroke="#0d0d0d" stroke-width="0.95"/>
    <g transform="translate(100,58) rotate(12)">
      <rect x="-5.5" y="0" width="11" height="58" rx="3" fill="#4a3828" stroke="#0d0d0d" stroke-width="0.95"/>
      <circle cx="0" cy="-8" r="10" fill="#3a3a44" stroke="#0d0d0d" stroke-width="0.95"/>
    </g>
  </g>
  </g>
  <g transform="translate(360,628) rotate(-32 60 100)" opacity="0.22">
<ellipse cx="60" cy="186" rx="26" ry="6" fill="rgba(0,0,0,0.38)"/>
  <g>
    <path d="M46 64 C32 72 26 96 28 122 C29 130 36 132 40 126 C36 104 40 80 52 70 Z"
      fill="url(#de-demon)" stroke="#8b0000" stroke-width="1.15"/>
    <ellipse cx="32" cy="128" rx="8" ry="8" fill="url(#de-demon)" stroke="#0d0d0d" stroke-width="0.95"/>
    <path d="M52 114 C46 132 44 152 46 168 C47 176 54 178 57 172 C56 152 56 132 60 116 Z"
      fill="url(#de-demon)" stroke="#0d0d0d" stroke-width="1.1"/>
    <path d="M46 170 L58 170 L60 178 L44 178 Z" fill="#2a1010" stroke="#0d0d0d" stroke-width="0.85"/>
    <path d="M68 114 C74 132 76 152 74 168 C73 176 66 178 63 172 C64 152 64 132 60 116 Z"
      fill="url(#de-demon)" stroke="#0d0d0d" stroke-width="1.1"/>
    <path d="M62 170 L74 170 L76 178 L60 178 Z" fill="#2a1010" stroke="#0d0d0d" stroke-width="0.85"/>
    <path d="M44 56 Q60 46 76 56 L80 112 Q60 122 40 112 Z"
      fill="url(#de-demon)" stroke="#8b0000" stroke-width="1.3"/>
    <path d="M74 64 C88 72 94 96 92 122 C91 130 84 132 80 126 C84 104 80 80 68 70 Z"
      fill="url(#de-demon)" stroke="#8b0000" stroke-width="1.15"/>
    <ellipse cx="88" cy="128" rx="8" ry="8" fill="url(#de-demon)" stroke="#0d0d0d" stroke-width="0.95"/>
    <ellipse cx="60" cy="42" rx="14" ry="13" fill="url(#de-demon)" stroke="#8b0000" stroke-width="1.2"/>
    <path d="M48 32 Q38 12 48 16" stroke="#2a1010" stroke-width="4" fill="none" stroke-linecap="round"/>
    <path d="M72 32 Q82 12 72 16" stroke="#2a1010" stroke-width="4" fill="none" stroke-linecap="round"/>
    <circle cx="55.5" cy="40" r="1.6" fill="#c5a059"/>
  <circle cx="64.5" cy="40" r="1.6" fill="#c5a059"/>
    <path d="M52 50 Q60 56 68 50" stroke="#0d0d0d" stroke-width="1.8" fill="none"/>
    <path d="M46 104 Q60 116 74 104 L70 128 Q60 134 50 128 Z"
      fill="#2a1010" stroke="#0d0d0d" stroke-width="0.95"/>
    <g transform="translate(100,58) rotate(12)">
      <rect x="-5.5" y="0" width="11" height="58" rx="3" fill="#4a3828" stroke="#0d0d0d" stroke-width="0.95"/>
      <circle cx="0" cy="-8" r="10" fill="#3a3a44" stroke="#0d0d0d" stroke-width="0.95"/>
    </g>
  </g>
  </g>
</svg>