<svg xmlns="http://www.w3.org/2000/svg" viewBox="0 0 480 800" width="480" height="800">
<defs>
  <radialGradient id="vi-skin" cx="38%" cy="28%" r="68%">
    <stop offset="0%" stop-color="#e8c9a8"/>
    <stop offset="55%" stop-color="#c49a6c"/>
    <stop offset="100%" stop-color="#8b6914"/>
  </radialGradient>
  <linearGradient id="vi-metal" x1="0" y1="0" x2="1" y2="1">
    <stop offset="0%" stop-color="#8a8a96"/>
    <stop offset="48%" stop-color="#5a5a64"/>
    <stop offset="100%" stop-color="#3a3a44"/>
  </linearGradient>
  <radialGradient id="vi-demon" cx="35%" cy="25%" r="70%">
    <stop offset="0%" stop-color="#b04040"/>
    <stop offset="100%" stop-color="#8b2020"/>
  </radialGradient>
  <linearGradient id="vi-fur" x1="0.2" y1="0" x2="0.8" y2="1">
    <stop offset="0%" stop-color="#5a4030"/>
    <stop offset="100%" stop-color="#3a2820"/>
  </linearGradient>
  <filter id="vi-soft" x="-12%" y="-12%" width="124%" height="124%">
    <feDropShadow dx="0" dy="2" stdDeviation="1.6" flood-color="#000" flood-opacity="0.35"/>
  </filter>
</defs>
  <g transform="translate(0,4)">
<ellipse cx="60" cy="186" rx="26" ry="6" fill="rgba(0,0,0,0.38)"/>
  <g>
    <path d="M46 62 C34 68 28 86 30 108 C31 116 36 118 40 114 C38 96 40 78 50 68 Z"
      fill="url(#vi-skin)" stroke="#0d0d0d" stroke-width="1.1"/>
    <ellipse cx="34" cy="116" rx="7" ry="7.5" fill="url(#vi-skin)" stroke="#0d0d0d" stroke-width="0.9"/>
    <path d="M42 56 Q60 46 78 56 L86 160 Q60 172 34 160 Z"
      fill="#3a2820" stroke="#0d0d0d" stroke-width="1.25"/>
    <path d="M50 66 L70 66 L72 142 Q60 150 48 142 Z"
      fill="#c8c0b0" stroke="#0d0d0d" stroke-width="0.85" opacity="0.9"/>
    <path d="M46 164 L56 164 L58 174 L44 174 Z" fill="#4a3828" stroke="#0d0d0d" stroke-width="0.8"/>
    <path d="M64 164 L74 164 L76 174 L62 174 Z" fill="#4a3828" stroke="#0d0d0d" stroke-width="0.8"/>
    <path d="M74 62 C86 68 92 86 90 108 C89 116 84 118 80 114 C82 96 80 78 70 68 Z"
      fill="url(#vi-skin)" stroke="#0d0d0d" stroke-width="1.1"/>
    <ellipse cx="86" cy="116" rx="7" ry="7.5" fill="url(#vi-skin)" stroke="#0d0d0d" stroke-width="0.9"/>
    <rect x="56" y="48" width="8" height="10" rx="2.5" fill="url(#vi-skin)" stroke="#0d0d0d" stroke-width="0.75"/>
    <ellipse cx="60" cy="40" rx="10" ry="11.5" fill="url(#vi-skin)" stroke="#0d0d0d" stroke-width="1.15"/>
    <path d="M51 32 Q60 21 69 32 Q65 26 60 25 Q55 26 51 32 Z"
    fill="#4a3828" stroke="#0d0d0d" stroke-width="0.65"/>
    <circle cx="60" cy="26" r="6" fill="#4a3828" stroke="#0d0d0d" stroke-width="0.85"/>
    <circle cx="56.5" cy="40" r="1.6" fill="#0d0d0d"/>
  <circle cx="63.5" cy="40" r="1.6" fill="#0d0d0d"/>
  </g>
  </g>
  <g transform="translate(120,1)">
<ellipse cx="60" cy="186" rx="26" ry="6" fill="rgba(0,0,0,0.38)"/>
  <g>
    <path d="M46 62 C34 68 28 86 30 108 C31 116 36 118 40 114 C38 96 40 78 50 68 Z"
      fill="url(#vi-skin)" stroke="#0d0d0d" stroke-width="1.1"/>
    <ellipse cx="34" cy="116" rx="7" ry="7.5" fill="url(#vi-skin)" stroke="#0d0d0d" stroke-width="0.9"/>
    <path d="M42 56 Q60 46 78 56 L86 160 Q60 172 34 160 Z"
      fill="#3a2820" stroke="#0d0d0d" stroke-width="1.25"/>
    <path d="M50 66 L70 66 L72 142 Q60 150 48 142 Z"
      fill="#c8c0b0" stroke="#0d0d0d" stroke-width="0.85" opacity="0.9"/>
    <path d="M46 164 L56 164 L58 174 L44 174 Z" fill="#4a3828" stroke="#0d0d0d" stroke-width="0.8"/>
    <path d="M64 164 L74 164 L76 174 L62 174 Z" fill="#4a3828" stroke="#0d0d0d" stroke-width="0.8"/>
    <path d="M74 62 C86 68 92 86 90 108 C89 116 84 118 80 114 C82 96 80 78 70 68 Z"
      fill="url(#vi-skin)" stroke="#0d0d0d" stroke-width="1.1"/>
    <ellipse cx="86" cy="116" rx="7" ry="7.5" fill="url(#vi-skin)" stroke="#0d0d0d" stroke-width="0.9"/>
    <rect x="56" y="48" width="8" height="10" rx="2.5" fill="url(#vi-skin)" stroke="#0d0d0d" stroke-width="0.75"/>
    <ellipse cx="60" cy="40" rx="10" ry="11.5" fill="url(#vi-skin)" stroke="#0d0d0d" stroke-width="1.15"/>
    <path d="M51 32 Q60 21 69 32 Q65 26 60 25 Q55 26 51 32 Z"
    fill="#4a3828" stroke="#0d0d0d" stroke-width="0.65"/>
    <circle cx="60" cy="26" r="6" fill="#4a3828" stroke="#0d0d0d" stroke-width="0.85"/>
    <circle cx="56.5" cy="40" r="1.6" fill="#0d0d0d"/>
  <circle cx="63.5" cy="40" r="1.6" fill="#0d0d0d"/>
  </g>
  </g>
  <g transform="translate(240,4)">
<ellipse cx="60" cy="186" rx="26" ry="6" fill="rgba(0,0,0,0.38)"/>
  <g>
    <path d="M46 62 C34 68 28 86 30 108 C31 116 36 118 40 114 C38 96 40 78 50 68 Z"
      fill="url(#vi-skin)" stroke="#0d0d0d" stroke-width="1.1"/>
    <ellipse cx="34" cy="116" rx="7" ry="7.5" fill="url(#vi-skin)" stroke="#0d0d0d" stroke-width="0.9"/>
    <path d="M42 56 Q60 46 78 56 L86 160 Q60 172 34 160 Z"
      fill="#3a2820" stroke="#0d0d0d" stroke-width="1.25"/>
    <path d="M50 66 L70 66 L72 142 Q60 150 48 142 Z"
      fill="#c8c0b0" stroke="#0d0d0d" stroke-width="0.85" opacity="0.9"/>
    <path d="M46 164 L56 164 L58 174 L44 174 Z" fill="#4a3828" stroke="#0d0d0d" stroke-width="0.8"/>
    <path d="M64 164 L74 164 L76 174 L62 174 Z" fill="#4a3828" stroke="#0d0d0d" stroke-width="0.8"/>
    <path d="M74 62 C86 68 92 86 90 108 C89 116 84 118 80 114 C82 96 80 78 70 68 Z"
      fill="url(#vi-skin)" stroke="#0d0d0d" stroke-width="1.1"/>
    <ellipse cx="86" cy="116" rx="7" ry="7.5" fill="url(#vi-skin)" stroke="#0d0d0d" stroke-width="0.9"/>
    <rect x="56" y="48" width="8" height="10" rx="2.5" fill="url(#vi-skin)" stroke="#0d0d0d" stroke-width="0.75"/>
    <ellipse cx="60" cy="40" rx="10" ry="11.5" fill="url(#vi-skin)" stroke="#0d0d0d" stroke-width="1.15"/>
    <path d="M51 32 Q60 21 69 32 Q65 26 60 25 Q55 26 51 32 Z"
    fill="#4a3828" stroke="#0d0d0d" stroke-width="0.65"/>
    <circle cx="60" cy="26" r="6" fill="#4a3828" stroke="#0d0d0d" stroke-width="0.85"/>
    <circle cx="56.5" cy="40" r="1.6" fill="#0d0d0d"/>
  <circle cx="63.5" cy="40" r="1.6" fill="#0d0d0d"/>
  </g>
  </g>
  <g transform="translate(360,2)">
<ellipse cx="60" cy="186" rx="26" ry="6" fill="rgba(0,0,0,0.38)"/>
  <g>
    <path d="M46 62 C34 68 28 86 30 108 C31 116 36 118 40 114 C38 96 40 78 50 68 Z"
      fill="url(#vi-skin)" stroke="#0d0d0d" stroke-width="1.1"/>
    <ellipse cx="34" cy="116" rx="7" ry="7.5" fill="url(#vi-skin)" stroke="#0d0d0d" stroke-width="0.9"/>
    <path d="M42 56 Q60 46 78 56 L86 160 Q60 172 34 160 Z"
      fill="#3a2820" stroke="#0d0d0d" stroke-width="1.25"/>
    <path d="M50 66 L70 66 L72 142 Q60 150 48 142 Z"
      fill="#c8c0b0" stroke="#0d0d0d" stroke-width="0.85" opacity="0.9"/>
    <path d="M46 164 L56 164 L58 174 L44 174 Z" fill="#4a3828" stroke="#0d0d0d" stroke-width="0.8"/>
    <path d="M64 164 L74 164 L76 174 L62 174 Z" fill="#4a3828" stroke="#0d0d0d" stroke-width="0.8"/>
    <path d="M74 62 C86 68 92 86 90 108 C89 116 84 118 80 114 C82 96 80 78 70 68 Z"
      fill="url(#vi-skin)" stroke="#0d0d0d" stroke-width="1.1"/>
    <ellipse cx="86" cy="116" rx="7" ry="7.5" fill="url(#vi-skin)" stroke="#0d0d0d" stroke-width="0.9"/>
    <rect x="56" y="48" width="8" height="10" rx="2.5" fill="url(#vi-skin)" stroke="#0d0d0d" stroke-width="0.75"/>
    <ellipse cx="60" cy="40" rx="10" ry="11.5" fill="url(#vi-skin)" stroke="#0d0d0d" stroke-width="1.15"/>
    <path d="M51 32 Q60 21 69 32 Q65 26 60 25 Q55 26 51 32 Z"
    fill="#4a3828" stroke="#0d0d0d" stroke-width="0.65"/>
    <circle cx="60" cy="26" r="6" fill="#4a3828" stroke="#0d0d0d" stroke-width="0.85"/>
    <circle cx="56.5" cy="40" r="1.6" fill="#0d0d0d"/>
  <circle cx="63.5" cy="40" r="1.6" fill="#0d0d0d"/>
  </g>
  </g>
  <g transform="translate(0,203)">
<ellipse cx="60" cy="186" rx="26" ry="6" fill="rgba(0,0,0,0.38)"/>
  <g>
    <path d="M46 62 C34 68 28 86 30 108 C31 116 36 118 40 114 C38 96 40 78 50 68 Z"
      fill="url(#vi-skin)" stroke="#0d0d0d" stroke-width="1.1"/>
    <ellipse cx="34" cy="116" rx="7" ry="7.5" fill="url(#vi-skin)" stroke="#0d0d0d" stroke-width="0.9"/>
    <path d="M42 56 Q60 46 78 56 L86 160 Q60 172 34 160 Z"
      fill="#3a2820" stroke="#0d0d0d" stroke-width="1.25"/>
    <path d="M50 66 L70 66 L72 142 Q60 150 48 142 Z"
      fill="#c8c0b0" stroke="#0d0d0d" stroke-width="0.85" opacity="0.9"/>
    <path d="M46 164 L56 164 L58 174 L44 174 Z" fill="#4a3828" stroke="#0d0d0d" stroke-width="0.8"/>
    <path d="M64 164 L74 164 L76 174 L62 174 Z" fill="#4a3828" stroke="#0d0d0d" stroke-width="0.8"/>
    <path d="M74 62 C86 68 92 86 90 108 C89 116 84 118 80 114 C82 96 80 78 70 68 Z"
      fill="url(#vi-skin)" stroke="#0d0d0d" stroke-width="1.1"/>
    <ellipse cx="86" cy="116" rx="7" ry="7.5" fill="url(#vi-skin)" stroke="#0d0d0d" stroke-width="0.9"/>
    <rect x="56" y="48" width="8" height="10" rx="2.5" fill="url(#vi-skin)" stroke="#0d0d0d" stroke-width="0.75"/>
    <ellipse cx="60" cy="40" rx="10" ry="11.5" fill="url(#vi-skin)" stroke="#0d0d0d" stroke-width="1.15"/>
    <path d="M51 32 Q60 21 69 32 Q65 26 60 25 Q55 26 51 32 Z"
    fill="#4a3828" stroke="#0d0d0d" stroke-width="0.65"/>
    <circle cx="60" cy="26" r="6" fill="#4a3828" stroke="#0d0d0d" stroke-width="0.85"/>
    <circle cx="56.5" cy="40" r="1.6" fill="#0d0d0d"/>
  <circle cx="63.5" cy="40" r="1.6" fill="#0d0d0d"/>
  </g>
  </g>
  <g transform="translate(126,202)">
<ellipse cx="60" cy="186" rx="26" ry="6" fill="rgba(0,0,0,0.38)"/>
  <g>
    <path d="M46 62 C34 68 28 86 30 108 C31 116 36 118 40 114 C38 96 40 78 50 68 Z"
      fill="url(#vi-skin)" stroke="#0d0d0d" stroke-width="1.1"/>
    <ellipse cx="34" cy="116" rx="7" ry="7.5" fill="url(#vi-skin)" stroke="#0d0d0d" stroke-width="0.9"/>
    <path d="M42 56 Q60 46 78 56 L86 160 Q60 172 34 160 Z"
      fill="#3a2820" stroke="#0d0d0d" stroke-width="1.25"/>
    <path d="M50 66 L70 66 L72 142 Q60 150 48 142 Z"
      fill="#c8c0b0" stroke="#0d0d0d" stroke-width="0.85" opacity="0.9"/>
    <path d="M46 164 L56 164 L58 174 L44 174 Z" fill="#4a3828" stroke="#0d0d0d" stroke-width="0.8"/>
    <path d="M64 164 L74 164 L76 174 L62 174 Z" fill="#4a3828" stroke="#0d0d0d" stroke-width="0.8"/>
    <path d="M74 62 C86 68 92 86 90 108 C89 116 84 118 80 114 C82 96 80 78 70 68 Z"
      fill="url(#vi-skin)" stroke="#0d0d0d" stroke-width="1.1"/>
    <ellipse cx="86" cy="116" rx="7" ry="7.5" fill="url(#vi-skin)" stroke="#0d0d0d" stroke-width="0.9"/>
    <rect x="56" y="48" width="8" height="10" rx="2.5" fill="url(#vi-skin)" stroke="#0d0d0d" stroke-width="0.75"/>
    <ellipse cx="60" cy="40" rx="10" ry="11.5" fill="url(#vi-skin)" stroke="#0d0d0d" stroke-width="1.15"/>
    <path d="M51 32 Q60 21 69 32 Q65 26 60 25 Q55 26 51 32 Z"
    fill="#4a3828" stroke="#0d0d0d" stroke-width="0.65"/>
    <circle cx="60" cy="26" r="6" fill="#4a3828" stroke="#0d0d0d" stroke-width="0.85"/>
    <circle cx="56.5" cy="40" r="1.6" fill="#0d0d0d"/>
  <circle cx="63.5" cy="40" r="1.6" fill="#0d0d0d"/>
  </g>
  </g>
  <g transform="translate(252,200)">
<ellipse cx="60" cy="186" rx="26" ry="6" fill="rgba(0,0,0,0.38)"/>
  <g>
    <path d="M46 62 C34 68 28 86 30 108 C31 116 36 118 40 114 C38 96 40 78 50 68 Z"
      fill="url(#vi-skin)" stroke="#0d0d0d" stroke-width="1.1"/>
    <ellipse cx="34" cy="116" rx="7" ry="7.5" fill="url(#vi-skin)" stroke="#0d0d0d" stroke-width="0.9"/>
    <path d="M42 56 Q60 46 78 56 L86 160 Q60 172 34 160 Z"
      fill="#3a2820" stroke="#0d0d0d" stroke-width="1.25"/>
    <path d="M50 66 L70 66 L72 142 Q60 150 48 142 Z"
      fill="#c8c0b0" stroke="#0d0d0d" stroke-width="0.85" opacity="0.9"/>
    <path d="M46 164 L56 164 L58 174 L44 174 Z" fill="#4a3828" stroke="#0d0d0d" stroke-width="0.8"/>
    <path d="M64 164 L74 164 L76 174 L62 174 Z" fill="#4a3828" stroke="#0d0d0d" stroke-width="0.8"/>
    <path d="M74 62 C86 68 92 86 90 108 C89 116 84 118 80 114 C82 96 80 78 70 68 Z"
      fill="url(#vi-skin)" stroke="#0d0d0d" stroke-width="1.1"/>
    <ellipse cx="86" cy="116" rx="7" ry="7.5" fill="url(#vi-skin)" stroke="#0d0d0d" stroke-width="0.9"/>
    <rect x="56" y="48" width="8" height="10" rx="2.5" fill="url(#vi-skin)" stroke="#0d0d0d" stroke-width="0.75"/>
    <ellipse cx="60" cy="40" rx="10" ry="11.5" fill="url(#vi-skin)" stroke="#0d0d0d" stroke-width="1.15"/>
    <path d="M51 32 Q60 21 69 32 Q65 26 60 25 Q55 26 51 32 Z"
    fill="#4a3828" stroke="#0d0d0d" stroke-width="0.65"/>
    <circle cx="60" cy="26" r="6" fill="#4a3828" stroke="#0d0d0d" stroke-width="0.85"/>
    <circle cx="56.5" cy="40" r="1.6" fill="#0d0d0d"/>
  <circle cx="63.5" cy="40" r="1.6" fill="#0d0d0d"/>
  </g>
  </g>
  <g transform="translate(365,202)">
<ellipse cx="60" cy="186" rx="26" ry="6" fill="rgba(0,0,0,0.38)"/>
  <g>
    <path d="M46 62 C34 68 28 86 30 108 C31 116 36 118 40 114 C38 96 40 78 50 68 Z"
      fill="url(#vi-skin)" stroke="#0d0d0d" stroke-width="1.1"/>
    <ellipse cx="34" cy="116" rx="7" ry="7.5" fill="url(#vi-skin)" stroke="#0d0d0d" stroke-width="0.9"/>
    <path d="M42 56 Q60 46 78 56 L86 160 Q60 172 34 160 Z"
      fill="#3a2820" stroke="#0d0d0d" stroke-width="1.25"/>
    <path d="M50 66 L70 66 L72 142 Q60 150 48 142 Z"
      fill="#c8c0b0" stroke="#0d0d0d" stroke-width="0.85" opacity="0.9"/>
    <path d="M46 164 L56 164 L58 174 L44 174 Z" fill="#4a3828" stroke="#0d0d0d" stroke-width="0.8"/>
    <path d="M64 164 L74 164 L76 174 L62 174 Z" fill="#4a3828" stroke="#0d0d0d" stroke-width="0.8"/>
    <path d="M74 62 C86 68 92 86 90 108 C89 116 84 118 80 114 C82 96 80 78 70 68 Z"
      fill="url(#vi-skin)" stroke="#0d0d0d" stroke-width="1.1"/>
    <ellipse cx="86" cy="116" rx="7" ry="7.5" fill="url(#vi-skin)" stroke="#0d0d0d" stroke-width="0.9"/>
    <rect x="56" y="48" width="8" height="10" rx="2.5" fill="url(#vi-skin)" stroke="#0d0d0d" stroke-width="0.75"/>
    <ellipse cx="60" cy="40" rx="10" ry="11.5" fill="url(#vi-skin)" stroke="#0d0d0d" stroke-width="1.15"/>
    <path d="M51 32 Q60 21 69 32 Q65 26 60 25 Q55 26 51 32 Z"
    fill="#4a3828" stroke="#0d0d0d" stroke-width="0.65"/>
    <circle cx="60" cy="26" r="6" fill="#4a3828" stroke="#0d0d0d" stroke-width="0.85"/>
    <circle cx="56.5" cy="40" r="1.6" fill="#0d0d0d"/>
  <circle cx="63.5" cy="40" r="1.6" fill="#0d0d0d"/>
  </g>
  </g>
  <g transform="translate(-3,403)">
<ellipse cx="60" cy="186" rx="26" ry="6" fill="rgba(0,0,0,0.38)"/>
  <g>
    <path d="M46 62 C34 68 28 86 30 108 C31 116 36 118 40 114 C38 96 40 78 50 68 Z"
      fill="url(#vi-skin)" stroke="#0d0d0d" stroke-width="1.1"/>
    <ellipse cx="34" cy="116" rx="7" ry="7.5" fill="url(#vi-skin)" stroke="#0d0d0d" stroke-width="0.9"/>
    <path d="M42 56 Q60 46 78 56 L86 160 Q60 172 34 160 Z"
      fill="#3a2820" stroke="#0d0d0d" stroke-width="1.25"/>
    <path d="M50 66 L70 66 L72 142 Q60 150 48 142 Z"
      fill="#c8c0b0" stroke="#0d0d0d" stroke-width="0.85" opacity="0.9"/>
    <path d="M46 164 L56 164 L58 174 L44 174 Z" fill="#4a3828" stroke="#0d0d0d" stroke-width="0.8"/>
    <path d="M64 164 L74 164 L76 174 L62 174 Z" fill="#4a3828" stroke="#0d0d0d" stroke-width="0.8"/>
    <path d="M74 62 C86 68 92 86 90 108 C89 116 84 118 80 114 C82 96 80 78 70 68 Z"
      fill="url(#vi-skin)" stroke="#0d0d0d" stroke-width="1.1"/>
    <ellipse cx="86" cy="116" rx="7" ry="7.5" fill="url(#vi-skin)" stroke="#0d0d0d" stroke-width="0.9"/>
    <rect x="56" y="48" width="8" height="10" rx="2.5" fill="url(#vi-skin)" stroke="#0d0d0d" stroke-width="0.75"/>
    <ellipse cx="60" cy="40" rx="10" ry="11.5" fill="url(#vi-skin)" stroke="#0d0d0d" stroke-width="1.15"/>
    <path d="M51 32 Q60 21 69 32 Q65 26 60 25 Q55 26 51 32 Z"
    fill="#4a3828" stroke="#0d0d0d" stroke-width="0.65"/>
    <circle cx="60" cy="26" r="6" fill="#4a3828" stroke="#0d0d0d" stroke-width="0.85"/>
    <circle cx="56.5" cy="40" r="1.6" fill="#0d0d0d"/>
  <circle cx="63.5" cy="40" r="1.6" fill="#0d0d0d"/>
  </g>
  </g>
  <g transform="translate(112,402) rotate(-4 60 100)">
<ellipse cx="60" cy="186" rx="26" ry="6" fill="rgba(0,0,0,0.38)"/>
  <g>
    <path d="M46 62 C34 68 28 86 30 108 C31 116 36 118 40 114 C38 96 40 78 50 68 Z"
      fill="url(#vi-skin)" stroke="#0d0d0d" stroke-width="1.1"/>
    <ellipse cx="34" cy="116" rx="7" ry="7.5" fill="url(#vi-skin)" stroke="#0d0d0d" stroke-width="0.9"/>
    <path d="M42 56 Q60 46 78 56 L86 160 Q60 172 34 160 Z"
      fill="#3a2820" stroke="#0d0d0d" stroke-width="1.25"/>
    <path d="M50 66 L70 66 L72 142 Q60 150 48 142 Z"
      fill="#c8c0b0" stroke="#0d0d0d" stroke-width="0.85" opacity="0.9"/>
    <path d="M46 164 L56 164 L58 174 L44 174 Z" fill="#4a3828" stroke="#0d0d0d" stroke-width="0.8"/>
    <path d="M64 164 L74 164 L76 174 L62 174 Z" fill="#4a3828" stroke="#0d0d0d" stroke-width="0.8"/>
    <path d="M74 62 C86 68 92 86 90 108 C89 116 84 118 80 114 C82 96 80 78 70 68 Z"
      fill="url(#vi-skin)" stroke="#0d0d0d" stroke-width="1.1"/>
    <ellipse cx="86" cy="116" rx="7" ry="7.5" fill="url(#vi-skin)" stroke="#0d0d0d" stroke-width="0.9"/>
    <rect x="56" y="48" width="8" height="10" rx="2.5" fill="url(#vi-skin)" stroke="#0d0d0d" stroke-width="0.75"/>
    <ellipse cx="60" cy="40" rx="10" ry="11.5" fill="url(#vi-skin)" stroke="#0d0d0d" stroke-width="1.15"/>
    <path d="M51 32 Q60 21 69 32 Q65 26 60 25 Q55 26 51 32 Z"
    fill="#4a3828" stroke="#0d0d0d" stroke-width="0.65"/>
    <circle cx="60" cy="26" r="6" fill="#4a3828" stroke="#0d0d0d" stroke-width="0.85"/>
    <circle cx="56.5" cy="40" r="1.6" fill="#0d0d0d"/>
  <circle cx="63.5" cy="40" r="1.6" fill="#0d0d0d"/>
  </g>
  </g>
  <g transform="translate(234,404)">
<ellipse cx="60" cy="186" rx="26" ry="6" fill="rgba(0,0,0,0.38)"/>
  <g>
    <path d="M46 62 C34 68 28 86 30 108 C31 116 36 118 40 114 C38 96 40 78 50 68 Z"
      fill="url(#vi-skin)" stroke="#0d0d0d" stroke-width="1.1"/>
    <ellipse cx="34" cy="116" rx="7" ry="7.5" fill="url(#vi-skin)" stroke="#0d0d0d" stroke-width="0.9"/>
    <path d="M42 56 Q60 46 78 56 L86 160 Q60 172 34 160 Z"
      fill="#3a2820" stroke="#0d0d0d" stroke-width="1.25"/>
    <path d="M50 66 L70 66 L72 142 Q60 150 48 142 Z"
      fill="#c8c0b0" stroke="#0d0d0d" stroke-width="0.85" opacity="0.9"/>
    <path d="M46 164 L56 164 L58 174 L44 174 Z" fill="#4a3828" stroke="#0d0d0d" stroke-width="0.8"/>
    <path d="M64 164 L74 164 L76 174 L62 174 Z" fill="#4a3828" stroke="#0d0d0d" stroke-width="0.8"/>
    <path d="M74 62 C86 68 92 86 90 108 C89 116 84 118 80 114 C82 96 80 78 70 68 Z"
      fill="url(#vi-skin)" stroke="#0d0d0d" stroke-width="1.1"/>
    <ellipse cx="86" cy="116" rx="7" ry="7.5" fill="url(#vi-skin)" stroke="#0d0d0d" stroke-width="0.9"/>
    <rect x="56" y="48" width="8" height="10" rx="2.5" fill="url(#vi-skin)" stroke="#0d0d0d" stroke-width="0.75"/>
    <ellipse cx="60" cy="40" rx="10" ry="11.5" fill="url(#vi-skin)" stroke="#0d0d0d" stroke-width="1.15"/>
    <path d="M51 32 Q60 21 69 32 Q65 26 60 25 Q55 26 51 32 Z"
    fill="#4a3828" stroke="#0d0d0d" stroke-width="0.65"/>
    <circle cx="60" cy="26" r="6" fill="#4a3828" stroke="#0d0d0d" stroke-width="0.85"/>
    <circle cx="56.5" cy="40" r="1.6" fill="#0d0d0d"/>
  <circle cx="63.5" cy="40" r="1.6" fill="#0d0d0d"/>
  </g>
  </g>
  <g transform="translate(357,405)">
<ellipse cx="60" cy="186" rx="26" ry="6" fill="rgba(0,0,0,0.38)"/>
  <g>
    <path d="M46 62 C34 68 28 86 30 108 C31 116 36 118 40 114 C38 96 40 78 50 68 Z"
      fill="url(#vi-skin)" stroke="#0d0d0d" stroke-width="1.1"/>
    <ellipse cx="34" cy="116" rx="7" ry="7.5" fill="url(#vi-skin)" stroke="#0d0d0d" stroke-width="0.9"/>
    <path d="M42 56 Q60 46 78 56 L86 160 Q60 172 34 160 Z"
      fill="#3a2820" stroke="#0d0d0d" stroke-width="1.25"/>
    <path d="M50 66 L70 66 L72 142 Q60 150 48 142 Z"
      fill="#c8c0b0" stroke="#0d0d0d" stroke-width="0.85" opacity="0.9"/>
    <path d="M46 164 L56 164 L58 174 L44 174 Z" fill="#4a3828" stroke="#0d0d0d" stroke-width="0.8"/>
    <path d="M64 164 L74 164 L76 174 L62 174 Z" fill="#4a3828" stroke="#0d0d0d" stroke-width="0.8"/>
    <path d="M74 62 C86 68 92 86 90 108 C89 116 84 118 80 114 C82 96 80 78 70 68 Z"
      fill="url(#vi-skin)" stroke="#0d0d0d" stroke-width="1.1"/>
    <ellipse cx="86" cy="116" rx="7" ry="7.5" fill="url(#vi-skin)" stroke="#0d0d0d" stroke-width="0.9"/>
    <rect x="56" y="48" width="8" height="10" rx="2.5" fill="url(#vi-skin)" stroke="#0d0d0d" stroke-width="0.75"/>
    <ellipse cx="60" cy="40" rx="10" ry="11.5" fill="url(#vi-skin)" stroke="#0d0d0d" stroke-width="1.15"/>
    <path d="M51 32 Q60 21 69 32 Q65 26 60 25 Q55 26 51 32 Z"
    fill="#4a3828" stroke="#0d0d0d" stroke-width="0.65"/>
    <circle cx="60" cy="26" r="6" fill="#4a3828" stroke="#0d0d0d" stroke-width="0.85"/>
    <circle cx="56.5" cy="40" r="1.6" fill="#0d0d0d"/>
  <circle cx="63.5" cy="40" r="1.6" fill="#0d0d0d"/>
  </g>
  </g>
  <g transform="translate(0,604) rotate(-5 60 100)" opacity="1">
<ellipse cx="60" cy="186" rx="26" ry="6" fill="rgba(0,0,0,0.38)"/>
  <g>
    <path d="M46 62 C34 68 28 86 30 108 C31 116 36 118 40 114 C38 96 40 78 50 68 Z"
      fill="url(#vi-skin)" stroke="#0d0d0d" stroke-width="1.1"/>
    <ellipse cx="34" cy="116" rx="7" ry="7.5" fill="url(#vi-skin)" stroke="#0d0d0d" stroke-width="0.9"/>
    <path d="M42 56 Q60 46 78 56 L86 160 Q60 172 34 160 Z"
      fill="#3a2820" stroke="#0d0d0d" stroke-width="1.25"/>
    <path d="M50 66 L70 66 L72 142 Q60 150 48 142 Z"
      fill="#c8c0b0" stroke="#0d0d0d" stroke-width="0.85" opacity="0.9"/>
    <path d="M46 164 L56 164 L58 174 L44 174 Z" fill="#4a3828" stroke="#0d0d0d" stroke-width="0.8"/>
    <path d="M64 164 L74 164 L76 174 L62 174 Z" fill="#4a3828" stroke="#0d0d0d" stroke-width="0.8"/>
    <path d="M74 62 C86 68 92 86 90 108 C89 116 84 118 80 114 C82 96 80 78 70 68 Z"
      fill="url(#vi-skin)" stroke="#0d0d0d" stroke-width="1.1"/>
    <ellipse cx="86" cy="116" rx="7" ry="7.5" fill="url(#vi-skin)" stroke="#0d0d0d" stroke-width="0.9"/>
    <rect x="56" y="48" width="8" height="10" rx="2.5" fill="url(#vi-skin)" stroke="#0d0d0d" stroke-width="0.75"/>
    <ellipse cx="60" cy="40" rx="10" ry="11.5" fill="url(#vi-skin)" stroke="#0d0d0d" stroke-width="1.15"/>
    <path d="M51 32 Q60 21 69 32 Q65 26 60 25 Q55 26 51 32 Z"
    fill="#4a3828" stroke="#0d0d0d" stroke-width="0.65"/>
    <circle cx="60" cy="26" r="6" fill="#4a3828" stroke="#0d0d0d" stroke-width="0.85"/>
    <circle cx="56.5" cy="40" r="1.6" fill="#0d0d0d"/>
  <circle cx="63.5" cy="40" r="1.6" fill="#0d0d0d"/>
  </g>
  </g>
  <g transform="translate(120,612) rotate(-14 60 100)" opacity="0.85">
<ellipse cx="60" cy="186" rx="26" ry="6" fill="rgba(0,0,0,0.38)"/>
  <g>
    <path d="M46 62 C34 68 28 86 30 108 C31 116 36 118 40 114 C38 96 40 78 50 68 Z"
      fill="url(#vi-skin)" stroke="#0d0d0d" stroke-width="1.1"/>
    <ellipse cx="34" cy="116" rx="7" ry="7.5" fill="url(#vi-skin)" stroke="#0d0d0d" stroke-width="0.9"/>
    <path d="M42 56 Q60 46 78 56 L86 160 Q60 172 34 160 Z"
      fill="#3a2820" stroke="#0d0d0d" stroke-width="1.25"/>
    <path d="M50 66 L70 66 L72 142 Q60 150 48 142 Z"
      fill="#c8c0b0" stroke="#0d0d0d" stroke-width="0.85" opacity="0.9"/>
    <path d="M46 164 L56 164 L58 174 L44 174 Z" fill="#4a3828" stroke="#0d0d0d" stroke-width="0.8"/>
    <path d="M64 164 L74 164 L76 174 L62 174 Z" fill="#4a3828" stroke="#0d0d0d" stroke-width="0.8"/>
    <path d="M74 62 C86 68 92 86 90 108 C89 116 84 118 80 114 C82 96 80 78 70 68 Z"
      fill="url(#vi-skin)" stroke="#0d0d0d" stroke-width="1.1"/>
    <ellipse cx="86" cy="116" rx="7" ry="7.5" fill="url(#vi-skin)" stroke="#0d0d0d" stroke-width="0.9"/>
    <rect x="56" y="48" width="8" height="10" rx="2.5" fill="url(#vi-skin)" stroke="#0d0d0d" stroke-width="0.75"/>
    <ellipse cx="60" cy="40" rx="10" ry="11.5" fill="url(#vi-skin)" stroke="#0d0d0d" stroke-width="1.15"/>
    <path d="M51 32 Q60 21 69 32 Q65 26 60 25 Q55 26 51 32 Z"
    fill="#4a3828" stroke="#0d0d0d" stroke-width="0.65"/>
    <circle cx="60" cy="26" r="6" fill="#4a3828" stroke="#0d0d0d" stroke-width="0.85"/>
    <circle cx="56.5" cy="40" r="1.6" fill="#0d0d0d"/>
  <circle cx="63.5" cy="40" r="1.6" fill="#0d0d0d"/>
  </g>
  </g>
  <g transform="translate(240,620) rotate(-24 60 100)" opacity="0.5">
<ellipse cx="60" cy="186" rx="26" ry="6" fill="rgba(0,0,0,0.38)"/>
  <g>
    <path d="M46 62 C34 68 28 86 30 108 C31 116 36 118 40 114 C38 96 40 78 50 68 Z"
      fill="url(#vi-skin)" stroke="#0d0d0d" stroke-width="1.1"/>
    <ellipse cx="34" cy="116" rx="7" ry="7.5" fill="url(#vi-skin)" stroke="#0d0d0d" stroke-width="0.9"/>
    <path d="M42 56 Q60 46 78 56 L86 160 Q60 172 34 160 Z"
      fill="#3a2820" stroke="#0d0d0d" stroke-width="1.25"/>
    <path d="M50 66 L70 66 L72 142 Q60 150 48 142 Z"
      fill="#c8c0b0" stroke="#0d0d0d" stroke-width="0.85" opacity="0.9"/>
    <path d="M46 164 L56 164 L58 174 L44 174 Z" fill="#4a3828" stroke="#0d0d0d" stroke-width="0.8"/>
    <path d="M64 164 L74 164 L76 174 L62 174 Z" fill="#4a3828" stroke="#0d0d0d" stroke-width="0.8"/>
    <path d="M74 62 C86 68 92 86 90 108 C89 116 84 118 80 114 C82 96 80 78 70 68 Z"
      fill="url(#vi-skin)" stroke="#0d0d0d" stroke-width="1.1"/>
    <ellipse cx="86" cy="116" rx="7" ry="7.5" fill="url(#vi-skin)" stroke="#0d0d0d" stroke-width="0.9"/>
    <rect x="56" y="48" width="8" height="10" rx="2.5" fill="url(#vi-skin)" stroke="#0d0d0d" stroke-width="0.75"/>
    <ellipse cx="60" cy="40" rx="10" ry="11.5" fill="url(#vi-skin)" stroke="#0d0d0d" stroke-width="1.15"/>
    <path d="M51 32 Q60 21 69 32 Q65 26 60 25 Q55 26 51 32 Z"
    fill="#4a3828" stroke="#0d0d0d" stroke-width="0.65"/>
    <circle cx="60" cy="26" r="6" fill="#4a3828" stroke="#0d0d0d" stroke-width="0.85"/>
    <circle cx="56.5" cy="40" r="1.6" fill="#0d0d0d"/>
  <circle cx="63.5" cy="40" r="1.6" fill="#0d0d0d"/>
  </g>
  </g>
  <g transform="translate(360,628) rotate(-32 60 100)" opacity="0.22">
<ellipse cx="60" cy="186" rx="26" ry="6" fill="rgba(0,0,0,0.38)"/>
  <g>
    <path d="M46 62 C34 68 28 86 30 108 C31 116 36 118 40 114 C38 96 40 78 50 68 Z"
      fill="url(#vi-skin)" stroke="#0d0d0d" stroke-width="1.1"/>
    <ellipse cx="34" cy="116" rx="7" ry="7.5" fill="url(#vi-skin)" stroke="#0d0d0d" stroke-width="0.9"/>
    <path d="M42 56 Q60 46 78 56 L86 160 Q60 172 34 160 Z"
      fill="#3a2820" stroke="#0d0d0d" stroke-width="1.25"/>
    <path d="M50 66 L70 66 L72 142 Q60 150 48 142 Z"
      fill="#c8c0b0" stroke="#0d0d0d" stroke-width="0.85" opacity="0.9"/>
    <path d="M46 164 L56 164 L58 174 L44 174 Z" fill="#4a3828" stroke="#0d0d0d" stroke-width="0.8"/>
    <path d="M64 164 L74 164 L76 174 L62 174 Z" fill="#4a3828" stroke="#0d0d0d" stroke-width="0.8"/>
    <path d="M74 62 C86 68 92 86 90 108 C89 116 84 118 80 114 C82 96 80 78 70 68 Z"
      fill="url(#vi-skin)" stroke="#0d0d0d" stroke-width="1.1"/>
    <ellipse cx="86" cy="116" rx="7" ry="7.5" fill="url(#vi-skin)" stroke="#0d0d0d" stroke-width="0.9"/>
    <rect x="56" y="48" width="8" height="10" rx="2.5" fill="url(#vi-skin)" stroke="#0d0d0d" stroke-width="0.75"/>
    <ellipse cx="60" cy="40" rx="10" ry="11.5" fill="url(#vi-skin)" stroke="#0d0d0d" stroke-width="1.15"/>
    <path d="M51 32 Q60 21 69 32 Q65 26 60 25 Q55 26 51 32 Z"
    fill="#4a3828" stroke="#0d0d0d" stroke-width="0.65"/>
    <circle cx="60" cy="26" r="6" fill="#4a3828" stroke="#0d0d0d" stroke-width="0.85"/>
    <circle cx="56.5" cy="40" r="1.6" fill="#0d0d0d"/>
  <circle cx="63.5" cy="40" r="1.6" fill="#0d0d0d"/>
  </g>
  </g>
</svg>